<svg xmlns="http://www.w3.org/2000/svg" viewBox="0 0 25.35 52.64"><g id="Layer_2" data-name="Layer 2"><g id="Layer_1-2" data-name="Layer 1"><path d="M18,29.05C18,30,18,30.9,18,31.8c.1,1.55.25,3.11.39,4.66.25,2.87.68,5.71,1.17,8.55.18,1,.21,2.09.3,3.14,0,.43.06.85.09,1.31.15,0,.3,0,.44,0a1.08,1.08,0,0,1,.9,1.13,1.05,1.05,0,0,1-1.06,1c-.69,0-1.39,0-2.08.09l-4.38.44c-1,.1-2,.17-3,.25a2.94,2.94,0,0,0-1.09.18,1,1,0,0,1-.76,0,7.06,7.06,0,0,0-1.79-.47,1.09,1.09,0,0,1-1-1A1.07,1.07,0,0,1,7.1,50c.33,0,.66,0,1.11,0a2.47,2.47,0,0,0-.3-.27c-.29-.2-.61-.37-.89-.58a1.26,1.26,0,0,1,.26-2.26,1.5,1.5,0,0,0,.17-.11c0-.27-.07-.55-.09-.83-.09-1.76-.17-3.53-.26-5.29a2,2,0,0,1,.25-1.25.89.89,0,0,0,.07-.49c-.12-2.09-.24-4.17-.37-6.26-.08-1.16-.18-2.32-.27-3.48,0-.17,0-.33,0-.49a.71.71,0,0,0-.18-.07,16.88,16.88,0,0,0-3.82.23,1.78,1.78,0,0,0-.52.18A1.08,1.08,0,0,1,.59,28L.47,26.22Q.26,23.39.06,20.54C0,20,0,19.41,0,18.85A.92.92,0,0,1,.39,18a.74.74,0,0,0,.3-.57,1.19,1.19,0,0,1,1.09-1,16.15,16.15,0,0,1,3.54-.14c.39,0,.78.07,1.22.12a2.5,2.5,0,0,0,0-.46c-.13-1.24-.25-2.47-.4-3.7-.06-.56-.19-1.11-.26-1.67a7.6,7.6,0,0,1,.25-2.12c0-.3.1-.59.16-.89a.88.88,0,0,1,0-.16c.37-1,.72-1.89,1.12-2.82A7.17,7.17,0,0,1,8.74,2.81,7.08,7.08,0,0,1,13,.7a17.68,17.68,0,0,1,4-.49c.42,0,.85-.18,1.27-.19a32.39,32.39,0,0,1,3.27,0A1.66,1.66,0,0,1,23,1.24l.32,0A1.15,1.15,0,0,1,24.5,2.42c0,1.3,0,2.6,0,3.89,0,1.11-.15,2.22-.23,3.32a1,1,0,0,0,0,.34,1.34,1.34,0,0,1-.15,1.15l.49.71c-.64.08-1.22.17-1.8.23-.88.09-1.76.17-2.64.23a.8.8,0,0,0-.63.3A8.76,8.76,0,0,0,18,15.77a4.24,4.24,0,0,0-.05.71c.61,0,1.17,0,1.72,0,.92,0,1.84-.12,2.76-.19a5.93,5.93,0,0,0,.72-.1c1-.18,1.51.37,1.41,1.37s0,1.73,0,2.61c.12.08.25.15.37.24A1,1,0,0,1,25,22a.71.71,0,0,0-.26.74c.07.67.14,1.34.22,2,0,0,0,.08,0,.11.54.73.12,1.57.25,2.35a1,1,0,0,1-.27.83,1,1,0,0,1-.78.4,4.1,4.1,0,0,0-1.87.24,30.18,30.18,0,0,1-3.92.33A2.76,2.76,0,0,0,18,29.05Z"/></g></g></svg>