<svg xmlns="http://www.w3.org/2000/svg" viewBox="0 0 122.82 128.12"><defs><style>.cls-1{stroke:#231f20;stroke-miterlimit:10;}</style></defs><g id="Layer_2" data-name="Layer 2"><g id="Layer_1-2" data-name="Layer 1"><path class="cls-1" d="M41.51,66.81c0-.07-.07-.16-.12-.2A43.44,43.44,0,0,0,36,62.17a21.82,21.82,0,0,1-4.1-3.33,52.8,52.8,0,0,0-6.22-5,68.53,68.53,0,0,0-9-5.61,28.25,28.25,0,0,1-4.3-2.79A21.9,21.9,0,0,0,6.77,42.3c-1-.4-2-.78-3-1.27a14.94,14.94,0,0,1-2.48-1.59,2,2,0,0,1-.41-2.8c1.43-2.11,2.86-4.2,4.36-6.25.75-1,1.67-1.92,2.48-2.9a35.9,35.9,0,0,0,4-6.09c.34-.64.69-1.28,1.09-1.88a2,2,0,0,1,3.24-.47c.5.4,1.07.73,1.59,1.12,1.25.95,2.53,1.89,3.74,2.91s2.49,2.35,3.8,3.45A29.11,29.11,0,0,0,28.53,29a30.55,30.55,0,0,1,5.7,4.55,24.71,24.71,0,0,0,5,3.88,27.17,27.17,0,0,1,5.65,4.49,19.25,19.25,0,0,0,6.1,4c0-.2-.07-.36-.12-.52a29,29,0,0,0-3.26-7.79c-.29-.43-.54-.88-.82-1.32A51.41,51.41,0,0,1,41,23.75a112.49,112.49,0,0,0-4.38-10.89,1.81,1.81,0,0,0-1-1,2.23,2.23,0,0,1-.8-3.05,2.81,2.81,0,0,1,1.22-1.17c.46-.23.94-.44,1.42-.63a29,29,0,0,0,4.93-2.44,21.38,21.38,0,0,1,7.4-2.72A25.76,25.76,0,0,0,53,.93a2.07,2.07,0,0,1,2.9,1.59c.23,1,.34,2,.59,3.05A49.74,49.74,0,0,0,59.56,14,101.77,101.77,0,0,1,64.2,25.82C65.06,28.57,66,31.3,66.84,34A55.23,55.23,0,0,0,70.36,42c.09-.21.17-.35.22-.51A53,53,0,0,1,75.07,30.9a64,64,0,0,0,4.7-10.57c.93-2.66,2.06-5.26,3.1-7.88A25.08,25.08,0,0,1,86.59,6a7.56,7.56,0,0,0,1.2-2.17c.25-.68.56-1.34.83-2A2,2,0,0,1,91.35.7a5.79,5.79,0,0,1,1.28.87c2.85,2.53,2.51,2.19,5.68,3.16l1.41.43a10,10,0,0,1,5,3.58A10.15,10.15,0,0,0,106,10.06a4.75,4.75,0,0,0,1.76,1.09,1.72,1.72,0,0,1,.73,2.79,28.58,28.58,0,0,0-2,2.63C103.65,20.86,100.65,25,97.52,29A19.34,19.34,0,0,0,95,33.32a66.61,66.61,0,0,1-4,7.23c-1,1.81-2,3.67-3,5.52-.12.22-.22.46-.38.83a3.62,3.62,0,0,0,.71-.16,30,30,0,0,0,3.23-1.69,29.68,29.68,0,0,1,6.15-3.13c1.93-.74,3.8-1.63,5.67-2.53A30.37,30.37,0,0,1,110,37a17.23,17.23,0,0,0,2.42-.82c1.21-.46,2.4-1,3.6-1.44.65-.26,1.3-.52,2-.74a5.55,5.55,0,0,1,1.27-.28,1.75,1.75,0,0,1,2,1.82c0,1.14.13,2.28.12,3.42A57.22,57.22,0,0,0,121.9,47a44.43,44.43,0,0,1,.4,7.38,1.82,1.82,0,0,1-1.53,2,12,12,0,0,1-2.47.24,17.79,17.79,0,0,0-4.76.64c-3,1-6.07,1.9-9,3.12a27.13,27.13,0,0,1-7.06,2.06c-1.31.17-2.63.27-3.94.42a9.86,9.86,0,0,0-1.67.33,42,42,0,0,0,4.86,2.95,24.62,24.62,0,0,1,5.29,3.1,29.28,29.28,0,0,1,2.46,2.26,21.53,21.53,0,0,0,4.05,3.26,34.6,34.6,0,0,1,5,3.62,19,19,0,0,1,3.06,3.4,2.06,2.06,0,0,1-.76,3,5.74,5.74,0,0,0-1.21,1,44.59,44.59,0,0,0-9.33,10.66c-1.27,1.92-2.57,3.83-3.84,5.76a7.43,7.43,0,0,0-.86,1.56c-.62,1.7-1.73,2-3.42,1.65a6.42,6.42,0,0,1-3-1.82c-.89-.86-1.73-1.79-2.55-2.72a20.56,20.56,0,0,0-3.9-3.44A17.09,17.09,0,0,1,84,94.26,22.92,22.92,0,0,1,82.33,92a28.72,28.72,0,0,0-5.18-6c-.51-.44-1-.92-1.49-1.37-.08-.08-.19-.14-.34-.26a6.54,6.54,0,0,0,.13,2.14c.7,4.41,1.42,8.81,2.08,13.21.21,1.39.23,2.8.36,4.19.22,2.3.45,4.59.71,6.88s.49,4.54.55,6.82a37.19,37.19,0,0,0,.65,6.49,7.51,7.51,0,0,1,.14,1.7A1.79,1.79,0,0,1,78,127.61a5.58,5.58,0,0,1-1.66-.34,15.45,15.45,0,0,1-1.9-.87,18.88,18.88,0,0,0-6.77-1.9c-1.23-.12-2.48-.16-3.73-.16-3.06,0-6.12,0-9.18,0a7,7,0,0,0-.92.11,1.78,1.78,0,0,1-2.26-1.8c0-2.31,0-4.62.09-6.93,0-2.12.22-4.25.23-6.37,0-7.22,0-14.43,0-21.65,0-1.19.17-2.37.22-3.56,0-.83,0-1.65,0-2.51-.09,0-.18,0-.21.09a26.85,26.85,0,0,1-3.58,4.1,22.37,22.37,0,0,0-3.95,5.27,35,35,0,0,1-5.62,7.62,21.38,21.38,0,0,0-3.52,4.82,46.67,46.67,0,0,1-5.16,7.68c-.92,1.11-1.77,2.3-2.61,3.49a16.85,16.85,0,0,0-1.25,2.14,1.82,1.82,0,0,1-1.73,1.21,1.91,1.91,0,0,1-1.72-1.36,16.25,16.25,0,0,1-.53-2.19c-.61-3.53-1.53-7-2.35-10.47a76.79,76.79,0,0,1-1.52-10.14A25.88,25.88,0,0,0,17,87a24.21,24.21,0,0,1-.76-2.37,1.76,1.76,0,0,1,1.3-2.41,10,10,0,0,0,3.83-2,21.58,21.58,0,0,1,7.26-3.8,5.25,5.25,0,0,0,2.54-1.58,28.09,28.09,0,0,1,7.45-5.92c.54-.32,1.08-.63,1.61-1A3.38,3.38,0,0,0,41.51,66.81Z"/></g></g></svg>