<svg xmlns="http://www.w3.org/2000/svg" viewBox="0 0 51.97 51.57"><g id="Layer_2" data-name="Layer 2"><g id="Layer_1-2" data-name="Layer 1"><path d="M52,14.69c-.12,2.21-.27,4.55-.39,6.9-.07,1.32-.11,2.63-.17,3.95-.11,2.7-.2,5.41-.36,8.12a39.54,39.54,0,0,1-.81,5.4c-.25,1.29-.45,2.6-.75,3.88a12.12,12.12,0,0,1-2.23,4.45A4.46,4.46,0,0,1,44.84,49c-1.5.43-3,.84-4.52,1.19a13.7,13.7,0,0,1-2.4.3c-1.84.11-3.68.13-5.52.26-1.56.1-3.1.31-4.65.47-.58.06-1.16.14-1.74.16-3.05.08-6.1.17-9.14.21-.86,0-1.73-.13-2.59-.2-.54,0-1.09-.1-1.63-.09A25.51,25.51,0,0,1,5.3,50,5,5,0,0,1,2,46.53a20.13,20.13,0,0,1-.8-3.68c-.28-2.1-.24-4.21-.36-6.31Q.52,31.86.28,27.19c-.23-4.53-.36-9.07-.23-13.6A20.2,20.2,0,0,1,.68,9.3a4,4,0,0,1,1.21-2c.47-.44,1-.85,1.44-1.27a10.25,10.25,0,0,1,3-1.6C7.53,4,8.71,3.53,9.87,3.05a12,12,0,0,1,3-.65l3.75-.49c1.06-.14,2.12-.27,3.18-.42a18.86,18.86,0,0,0,2-.37A22.66,22.66,0,0,1,25.36.59l2.69-.3a7.89,7.89,0,0,1,.84,0L37.75,0A37.42,37.42,0,0,1,42.48.2,23.74,23.74,0,0,0,45,.25a10.74,10.74,0,0,1,4.33.87,2.72,2.72,0,0,1,1.74,1.93c.17.73.31,1.47.41,2.21.17,1.38.32,2.76.43,4.15.06.86,0,1.73,0,2.6S52,13.7,52,14.69ZM27.81,45.18A2.26,2.26,0,0,1,28.73,44a35.84,35.84,0,0,1,5.41-3.35,8.87,8.87,0,0,1,2-.69,8,8,0,0,1,3.08-.15.63.63,0,0,0,.78-.37,4.75,4.75,0,0,1,.55-.85c.93-1.16,1.88-2.3,2.8-3.46a4.23,4.23,0,0,0,.53-.92c.33-.72.6-1.46.94-2.17a3.39,3.39,0,0,1,.7-.94.93.93,0,0,0,.31-.61,23.42,23.42,0,0,1,1-4.85,1,1,0,0,0,0-.39c0-1.06,0-2.11,0-3.16l0-5.7a1.44,1.44,0,0,1,.35-1.1.33.33,0,0,0,.1-.24,8,8,0,0,0-.24-1.67,33,33,0,0,1-1.07-3.37,3.53,3.53,0,0,0-1-1.9,2.3,2.3,0,0,1-.47-.56,2.11,2.11,0,0,0-1.34-.89,19.76,19.76,0,0,0-7.53-.76,2.38,2.38,0,0,0-.58.16c-.35.14-.67.34-1,.45a35.13,35.13,0,0,1-6.15,1.33,35.88,35.88,0,0,1-5.86.25c-.52,0-1-.17-1.55-.24a2.5,2.5,0,0,0-.77,0c-1,.19-2.09.42-3.15.61-1.55.28-3.1.54-4.66.79A3.44,3.44,0,0,0,9.46,10.4a11.49,11.49,0,0,0-1,1A24.79,24.79,0,0,1,6,14.71a1,1,0,0,0-.24.54,20.73,20.73,0,0,0-.12,2.36c.06,2.11.19,4.21.23,6.32.06,3,.07,6,.1,9a10.85,10.85,0,0,0,.08,1.4c.37,2.32,1,4.59,1.55,6.87.18.69.31,1.39.47,2.09.07.33.62.91.86.84a3.47,3.47,0,0,1,1.75.26c.88.19,1.77.36,2.66.48,2.47.33,5,.63,7.43.94l.89.11A1.28,1.28,0,0,1,23.22,45c.43.05.86.09,1.28.18a7.35,7.35,0,0,0,2.24.13Z"/><path d="M24.32,41.37a8,8,0,0,1-4-.81c-.78-.36-1.6-.66-2.39-1a6.14,6.14,0,0,1-3-2.71c-.58-1-1.17-2-1.74-3A9.34,9.34,0,0,1,12,29.29a9.64,9.64,0,0,1,.34-3.74,22,22,0,0,1,3.19-6.12,11.36,11.36,0,0,1,3.72-3.06c.75-.38,1.52-.74,2.26-1.14a3.2,3.2,0,0,1,2-.31,4,4,0,0,0,.77,0,9.59,9.59,0,0,1,6,1.24A22.78,22.78,0,0,1,34,19a5.56,5.56,0,0,1,1.4,1.83,36.28,36.28,0,0,1,2.1,5.28,10.68,10.68,0,0,1-.46,7.07c-.41,1-.89,1.91-1.33,2.86a6.76,6.76,0,0,1-2.47,2.8,20.5,20.5,0,0,1-3.6,1.87,6.94,6.94,0,0,1-2.25.46C26.39,41.26,25.36,41.31,24.32,41.37Zm0-4c.83-.45,1.57-.82,2.29-1.22,1.73-1,3.44-1.93,5.18-2.86a1.31,1.31,0,0,0,.81-1.23c0-1.76.13-3.53.14-5.3a13.76,13.76,0,0,0-.24-2.12.75.75,0,0,0-.17-.4c-.69-.87-1.39-1.73-2.1-2.59a.51.51,0,0,0-.31-.19,6.68,6.68,0,0,1-3.33-1.4,1.08,1.08,0,0,0-.57-.19c-.79,0-1.58,0-2.37,0a3.76,3.76,0,0,0-1.06.14c-1.18.41-2.36.86-3.56,1.3,0,.07,0,.15-.07.24-.32,1.4-.63,2.79-.94,4.18-.35,1.56-.68,3.12-1,4.68a.81.81,0,0,0,.18.73,15.9,15.9,0,0,0,2.34,2.51,7,7,0,0,0,1.64,1.18c.77.36,1.51.77,2.26,1.15A1.38,1.38,0,0,1,24.28,37.36Z"/><path d="M42.22,12.8A9.51,9.51,0,0,1,42,14a2.2,2.2,0,0,1-2.39,1.71,2.34,2.34,0,0,1-1.94-.85,3.31,3.31,0,0,1-.78-2.61A3.9,3.9,0,0,1,38.2,9.91a2.62,2.62,0,0,1,1.59-.63,1.81,1.81,0,0,1,1.82,1A5.14,5.14,0,0,1,42.22,12.8Z"/></g></g></svg>