<svg xmlns="http://www.w3.org/2000/svg" viewBox="0 0 173.13 159.46"><g id="Layer_2" data-name="Layer 2"><g id="Layer_1-2" data-name="Layer 1"><path d="M172.23,11.76c-.82-.1-1.65-.11-2.45-.27a34,34,0,0,0-6.67-.68,6.11,6.11,0,0,0-1,.07c-.58.09-.68.25-.73.8-.08.91-.16,1.81-.28,2.71-.28,2.19-.63,4.38-.87,6.57-.16,1.46-.17,2.94-.27,4.41,0,.3-.08.6-.12.91a.52.52,0,0,1-.25-.34,16.4,16.4,0,0,0-2.28-5,4.75,4.75,0,0,0-3.57-2.2c-.88-.1-1.76-.15-2.65-.2a16.91,16.91,0,0,0-3.89-.26A8.45,8.45,0,0,0,140,22.36a26.2,26.2,0,0,0-2,4.11,6.53,6.53,0,0,0,.39,6c.14.22.27.45.4.68a15.07,15.07,0,0,0,.44,2.53,12.62,12.62,0,0,0,3.11,5.56,6.93,6.93,0,0,0,3.82,2.24,15.92,15.92,0,0,0,8.35-.55A4.09,4.09,0,0,0,157,40.91c.42-.87.9-1.7,1.35-2.55l.1,0-.52,5c-.69.08-1.32.17-2,.22-.85.07-1.71.08-2.56.15-1.31.11-2.63.29-4,.37a69.34,69.34,0,0,0-8.14,1,22.79,22.79,0,0,1-6.05.5,1.91,1.91,0,0,0-1.86,1.72c0,.28-.06.55-.09.82-.56,0-.39-.31-.37-.55.14-1.59.26-3.17.39-4.75a30.34,30.34,0,0,1,.28-3.17c.13-.68.09-1.14-.61-1.41.1-1.33.25-2.62.31-3.91.09-2.09.1-4.18.2-6.27a11.83,11.83,0,0,1,.4-2.52,11.87,11.87,0,0,0,.46-3.4c0-3.36,0-6.72,0-10.08,0-.5,0-1,.07-1.5.12-2.7.26-5.41.35-8.12,0-.85-.34-1.08-1.17-.91a10.23,10.23,0,0,1-1.82.26c-1.68,0-3.36,0-5,0-.31,0-.62-.06-1-.1a6.31,6.31,0,0,0,.31-.55.88.88,0,0,0-.14-1.06c-.31-.27-.7-.25-1.12.11a6.57,6.57,0,0,0-.85.9L121,5.06c-.23.3-.41.59-.22,1s.53.31.86.3c.05,0,.1,0,.18.09a3.65,3.65,0,0,0,.26,2.47,3.3,3.3,0,0,1,.35,1.74,1.65,1.65,0,0,0,.55,1.89c-.07.26-.13.48-.2.7-.19.69-.39,1.36-.56,2s0,1,.82,1.16c0,0,.1,0,.2.08-.23.69-.48,1.38-.68,2.09-.14.48-.19,1,.21,1.26a10.92,10.92,0,0,0-.07,1.15v.4c-.22.74-.45,1.48-.64,2.23a2,2,0,0,0,0,1.12c.09.24.4.4.67.6,0,1.41,0,2.83,0,4.24,0,1.19,0,2.38.06,3.58l-.67,1.65c-1.26-.08-2.52-.17-3.78-.21s-2.53-.09-3.8-.06-2.49.15-3.79.24c.08-1,.13-1.86.21-2.74.19-1.9.47-3.8.59-5.71.14-2.15.18-4.3.23-6.45q.09-4.41.13-8.84c0-1.2-.16-1.35-1.39-1.35l-3.23,0a5.44,5.44,0,0,0-.62-.06c-.71,0-1.42-.07-2.13-.11a3.18,3.18,0,0,1-1-.44c-.87-.56-1.4-.35-1.64.55a2,2,0,0,0-1.21,1.8c0,.7-.07,1.4-.11,2.09-.36,2.43-.73,4.85-1.17,7.27-.29,1.59-.73,3.15-1.11,4.73a33.7,33.7,0,0,0-1.15,3.61,7.61,7.61,0,0,0-.33,2c0,1.21,0,2.42,0,3.63-.07.43-.14.86-.18,1.3-.25,2.54-.4,5.1-.59,7.66-.05.67-.11,1.34-.16,2a5.47,5.47,0,0,1-2.56.54L88,46.36,81,46l-1.64-.09V43.47l0-11.59a2.78,2.78,0,0,1,.06-1,13.46,13.46,0,0,0,.5-4.46c0-.31,0-.63,0-1,.34,0,.6,0,.86,0l4.14.22,6.79.42c.44,0,.88,0,1.32,0a.7.7,0,0,0,.8-.65,2.1,2.1,0,0,1,.66-1.39,1.24,1.24,0,0,0,.25-.72,23.09,23.09,0,0,0,.32-4.84c0-.86-.26-1.08-1.14-1-.17,0-.34,0-.52,0a1.93,1.93,0,0,0-1.36-.93,2,2,0,0,0-2.09,1l-.11.21c-.66,0-1.33,0-2-.05-1-.07-2-.23-3-.26-1.53,0-3.06,0-4.66,0-.23-.49-.72-.57-1.29-.55a7.39,7.39,0,0,1-1.41-.05c-1.43-.18-2.86-.37-4.28-.58-.89-.13-1.65,0-2.06.91,0,0-.1.06-.19.1s-.41-.13-.64-.17c-.74-.14-1.11.12-1.21.89a6.47,6.47,0,0,0,0,.88c0,3.2,0,6.39,0,9.59-.13,1-.27,1.94-.39,2.91s-.27,2.15-.4,3.24c-1.59,0-3.12,0-4.62,0a6.58,6.58,0,0,1-3.28-.54v-.93q0-8.62,0-17.24c0-.74,0-1.48-.1-2.21-.18-2.08-.43-4.16-.56-6.25,0-.88-.35-1.35-1.49-1.13a18.8,18.8,0,0,1-5.19.06,12,12,0,0,1-3.58-.91c-1-.43-1.53-.17-1.82.94a9.26,9.26,0,0,0-.31,2.09c0,2.15,0,4.3-.06,6.45v1.06a31.39,31.39,0,0,1-3.51-.31,22.86,22.86,0,0,0-6.85-.46c-.4,0-.8,0-1.21,0a2.47,2.47,0,0,1-.07-.43,48.81,48.81,0,0,1,.44-7.14c.13-.7-.19-1-.88-.82a.89.89,0,0,1-.74-.06,2.06,2.06,0,0,0-.26-.12,2,2,0,0,0-2.14-1.92c-1.95,0-3.89,0-5.84,0a1.88,1.88,0,0,0-1.36.55l-.42-.08c-.09-.21-.22-.53-.36-.85s-.38-.54-.75-.46a.68.68,0,0,0-.57.69c0,.24,0,.47,0,.71,0,3.18,0,6.37,0,9.55,0,.31,0,.62,0,1-.8,0-1.51,0-2.21,0a1.15,1.15,0,0,0-1.32.73l-.93-.05c-1.29-.11-2.58-.26-3.87-.31-1.53-.06-3.07-.08-4.6,0a23.53,23.53,0,0,0-3.23.39,1.15,1.15,0,0,0-1.13,1.28A2.1,2.1,0,0,0,4,20.55a18.05,18.05,0,0,1,.6,5.07,2.13,2.13,0,0,0,2,2.33,24.72,24.72,0,0,0,2.72.22c1.71,0,3.42,0,5.13.08.27,0,.53.05,1,.09l-.85.66a6.24,6.24,0,0,0-2.81,4.62c-.12,1.42-.11,2.86-.1,4.3-.07.95-.09,1.89-.07,2.85a10.65,10.65,0,0,0,2.13,6.34,12.18,12.18,0,0,0,7,4.8c.24.06.48.14.6.18a5,5,0,0,0-.3,1.14c0,.13,0,.26,0,.39A1.84,1.84,0,0,0,20,55.06a1.93,1.93,0,0,0,1,2l.1.05v1.23c0,.19,0,.39,0,.68H17.68a.83.83,0,0,1-.41-.13,2.61,2.61,0,0,0-1.95-.32,13.8,13.8,0,0,1-2,.25c-2.06,0-4.11-.12-6.17-.19-.18,0-.35-.08-.52-.09-1.59-.09-3.17-.2-4.76-.26-.57,0-.79.23-.86.78,0,.15,0,.3,0,.45,0,1.27,0,2.55,0,3.83l-.18.14a2,2,0,0,0-.76,2.12A2,2,0,0,0,1,67v.75c0,.64.16.87.78,1a9.88,9.88,0,0,0,3.87-.06,14.6,14.6,0,0,1,2.24-.46c1.86,0,3.72-.16,5.58-.37h0a2.55,2.55,0,0,1,0,.34V69a1.76,1.76,0,0,0-.29.93,32,32,0,0,0,0,4.49c.05.4.11.79.18,1.18l0,2.47a45.54,45.54,0,0,0,.14,6.71c.22,1.6.43,3.2.66,4.8a1.68,1.68,0,0,0,2,1.22,18.13,18.13,0,0,1,1.92-.28c4.56-.16,9.11-.59,13.69-.39,2.94.12,5.89,0,8.82.38,1.43.2,2.86.33,4.3.46,2.31.22,4.63.53,6.94.58,4.33.1,8.67,0,13,0,1,0,2-.07,3-.11l1.22,0a1.86,1.86,0,0,0,.42,0,7.66,7.66,0,0,1,2.13.16,1,1,0,0,0,1.33-.89,5.79,5.79,0,0,0,.06-1.76,35.51,35.51,0,0,1-.33-5.64c0-1-.2-1.21-1.25-1.22s-2.3,0-3.44-.08c-2.35-.18-4.69-.43-7-.63-1.5-.12-3-.18-4.5-.27-2.41-.14-4.82-.3-7.23-.4-.82,0-1.65.1-2.47.12-2.85.07-5.71.15-8.57.18-3.35,0-6.71,0-10.07.08a6.29,6.29,0,0,1-2.4-.56c0-.2,0-.37,0-.54a50.06,50.06,0,0,0-.48-9,7.33,7.33,0,0,1,0-2.6A15.46,15.46,0,0,0,27.45,68a11.36,11.36,0,0,1,3.23-.35,38.82,38.82,0,0,0,4.58-.25,12.61,12.61,0,0,1,5.33.17,9.23,9.23,0,0,0,2.36.15.78.78,0,0,0,.84-.63c.06-.36.28-.27.54-.24,0,.28,0,.51,0,.74,0,1-.1,1.94-.11,2.91,0,.68.23.9.92.89a4.36,4.36,0,0,0,1.13-.13,18.59,18.59,0,0,1,3.05-.47l1.63-.07h.66c1.5,0,3,0,4.51,0a11.31,11.31,0,0,0,2.25-.33c1.15-.29,1.22-.41,1.2-1.59,0-2.06-.16-4.12-.12-6.18.06-3.54.22-7.07.33-10.61.06-2,.09-3.94.16-5.92,0-1,.13-2,.2-3l1.28-.16c2.41-.3,4.71.54,7.14.61,0,.68,0,1.27,0,1.86,0,1.29-.11,2.59-.17,3.88,0,.47,0,.94-.08,1.41-.07,1.47-.16,2.94-.21,4.41,0,.7.22,1,.9,1.06a3,3,0,0,0,.52,0c.94-.05,1.88-.12,2.82-.16,3.06-.12,6.12-.29,9.18-.33,3.71-.06,7.42,0,11.14,0a15.32,15.32,0,0,1,1.94.24c0,.33-.05.59-.09.85-.23,1.84-.43,3.68-.49,5.54-.09,2.94-.28,5.88-.51,8.82l0,.4c-.1.78-.2,1.56-.24,2.34,0,.1,0,.2,0,.31-.18,1.88-.37,3.77-.53,5.66-.27,3.19-.48,6.4-.71,9.6-.05.64.17.9.88.9h.5a3,3,0,0,0,.55.23,11.24,11.24,0,0,0,2.42.46,22.43,22.43,0,0,1,5.15.71,1.87,1.87,0,0,0,2.41-1.52h.22c.56,1.09.79,1.1,1.8.12.32.06.66.15,1,.19.62.06,1-.26.93-.87a1.23,1.23,0,0,0-.36-.83c-.26-.14-.65,0-1,0,.32-1.3.32-1.3-.43-1.94,0-.3,0-.62.11-.94.15-.72.37-1.43.45-2.16.16-1.58.23-3.17.37-4.75.31-3.58.64-7.16,1-10.74.13-1.44.23-2.88.35-4.31.2-2.26.45-4.52.6-6.78.22-3.44.37-6.89.56-10.33a5.54,5.54,0,0,1,.12-.71c.29,0,.52.07.74.12a7.23,7.23,0,0,0,3.75-.07,7.9,7.9,0,0,1,1.72-.38c1.83-.12,3.66-.2,5.48-.29,0,2.26-.09,4.52-.09,6.77v.36c-.06.23-.13.47-.18.7-.11.43-.28.84-.37,1.27s-.09.73.3.93a.49.49,0,0,1,.25.31v1.44Q121,63,120.92,68.81a3.62,3.62,0,0,1-.09.87c-.17.59-.42,1.15,0,1.72a7.63,7.63,0,0,1-.13,1.07,10.56,10.56,0,0,0-.07,3.8c0,.08,0,.15,0,.22s0,.29.08.43.1.54.14.81a7.84,7.84,0,0,1-.42,3.59.79.79,0,0,0,.12,1,1,1,0,0,1,.31,1c-.08,1.44-.15,2.88-.25,4.32,0,.46-.18.91-.28,1.43h-1l-8.22-.09c-.35,0-.66,0-.83.36a.71.71,0,0,0,.15.81,1.07,1.07,0,0,1,.2.62v0l-.39.1a1.94,1.94,0,0,0-1,3.08c.16.21.35.39.57.63-.09.37-.18.68-.25,1a18.48,18.48,0,0,0-.2,4.58,36.83,36.83,0,0,1,0,3.79,20,20,0,0,0,0,4.16c-.21,2.37-.42,4.75-.65,7.12-.26,2.7-.52,5.39-.83,8.08-.17,1.48-.06,1.89,1.07,2a2.26,2.26,0,0,0,2,.81c2.72,0,5.43-.11,8.14-.2a15.45,15.45,0,0,0,2.45-.28,3,3,0,0,0,.84-.27c1.37.13,1.48-.07,1.49-1.56,0-2.72,0-5.43,0-8.14a39.22,39.22,0,0,1,.52-6c1.66.09,3.33.19,5,.26a3.29,3.29,0,0,0,2.27-.91H133c-.32.64.13.84.59,1a2,2,0,0,0-.58,1.41c0,.92,0,1.83,0,2.74a2,2,0,0,0,1.61,2c.25.06.49.16.74.23a6.22,6.22,0,0,0,1.18.31c1.39.1,2.77.15,4.15.23,0-.06,0-.12,0-.17l1.42.11c.69.09,1.39.14,2.09.17l1.85.14a4.17,4.17,0,0,0,2.51-.23,1.35,1.35,0,0,1,.61-.08,76.82,76.82,0,0,0,9.71-.36l3-.31a20.64,20.64,0,0,1,3.52-.29,2.21,2.21,0,0,0,.73-.07l2.7-.07c.83,0,1-.13,1.12-.93.19-1,.38-2,.52-3a19.27,19.27,0,0,0,.17-2.28c0-.72-.19-.92-.88-1.12a9,9,0,0,0-3.42-.1c-.91.1-1.82.26-2.72.27-3.54,0-7.08,0-10.61,0-5.1,0-10.2.13-15.29.19-1,0-1.94,0-2.84,0,.05-.73.12-1.36.14-2s0-1.12,0-1.68c0-1.26.06-2.53.12-3.79,0-1.08-.18-1.37-1.27-1.47-.29,0-.59,0-.88,0h-7.72c0-.24,0-.38,0-.52.23-3,.46-5.93.67-8.89.08-1.07,0-1.13-1-1.42,0,0-.07-.09-.1-.13a1.29,1.29,0,0,1,.15-.62c1.29.13,2.59.21,3.87.4a4.24,4.24,0,0,0,3-.56A2.25,2.25,0,0,0,133.07,86a1.72,1.72,0,0,0-.11-1,3.21,3.21,0,0,0-.12-.33A14.55,14.55,0,0,1,131.6,80c0-.37,0-.73,0-1.1a20.74,20.74,0,0,0-.42-6,7.55,7.55,0,0,1-.17-1v0c-.07-1.77-.05-3.55,0-5.33a1.36,1.36,0,0,1,.18-.74,10.5,10.5,0,0,0,1.56-5.09c.25-2.22.35-4.46.51-6.69,0-.58.05-1.17.09-1.88a2,2,0,0,0,2.39.5,3.12,3.12,0,0,0,.59-.19,4.24,4.24,0,0,1,1.15-.3,2.65,2.65,0,0,0,.85.08l3.24-.13H144c1,0,2,.11,3,.17.82.06,1.64.13,2.46.17a21.8,21.8,0,0,0,5.09-.48c.73-.14,1.47-.24,2.28-.37-.07.83-.15,1.56-.2,2.29-.17,2.41-.34,4.82-.48,7.23-.08,1.23-.12,2.47-.13,3.71,0,.73.17.87.89.89h.26c2.45-.06,4.89-.11,7.34-.2.77,0,1.19-.15,1.43-.52a2.08,2.08,0,0,0,1.63-3.07,5,5,0,0,1-.42-1.16c-.15-.89-.3-1.79-.41-2.7,0-.49.08-1,.13-1.48.32-3.05.67-6.09,1-9.13.2-1.76.44-3.51.62-5.26s.19-3.24.43-4.84c.33-2.27.86-4.51,1.19-6.78s.93-4.56,1.49-6.81c.31-1.26.52-2.54.71-3.82.24-1.63.43-3.27.61-4.9a22,22,0,0,0,.17-2.29C173.14,12,173,11.86,172.23,11.76ZM133.4,3.38c0,1-.06,1.92-.09,2.89a2.8,2.8,0,0,0-.49-.39c-.12-.08-.23-.17-.34-.26.09-.23.19-.41.25-.6a1.91,1.91,0,0,0-.33-1.84h.92A.52.52,0,0,1,133.4,3.38ZM131.46,44.2c0-.75,0-1.51,0-2.26a5.31,5.31,0,0,1,.09-1c0,.34,0,.69,0,1C131.52,42.74,131.48,43.47,131.46,44.2Zm-8.77-8a3.59,3.59,0,0,0-.27.7l-11.85-.56s0-.07,0-.1C114.6,35.47,118.58,35.93,122.69,36.23Zm-22.18,51c0,.08-.23.09-.35.13l1-3.14A5.36,5.36,0,0,1,100.51,87.2Zm8-50.92v-.06l.68,0v.05Zm2-24.51c-.07,4.45-.09,8.9-.23,13.35-.06,1.88-.38,3.75-.57,5.62-.12,1.17-.2,2.35-.3,3.52,0,.6-.06.6-.76.64-.05,0-.1-.07-.12-.12-.2-.42-.37-.62-.59-.67,0-.63.07-1.25.12-1.87a1.82,1.82,0,0,1,.21-.66,13.08,13.08,0,0,0,1.31-7,25,25,0,0,1,.11-5.74c.17-1.4.39-2.79.63-4.18a2,2,0,0,0-.86-2.23,1,1,0,0,1-.51-.77c0-.21-.09-.4-.14-.57.54,0,1.08,0,1.63,0C110.46,11.33,110.51,11.55,110.51,11.77ZM77.83,45.84c0-.39,0-.71,0-1,0-1.27-.06-2.53-.1-3.8-.13-4.31-.21-8.62.08-12.92A6.52,6.52,0,0,1,78,26.68c0,5.52,0,11,0,16.57,0,.84,0,1.68-.1,2.6ZM93.52,22.52v-.1c0-1.14.13-2.28.14-3.42h.11A12.69,12.69,0,0,1,93.52,22.52ZM58.66,42.68c.09.1.06.33.06.5,0,1.37-.1,2.74-.14,4.1a13.59,13.59,0,0,0-.43-3.45A8.63,8.63,0,0,1,58,42.4l.43,0A1.31,1.31,0,0,0,58.66,42.68Zm-.22,8.72c-.08,1.76-.27,3.53-.28,5.29,0,3.16,0,6.31,0,9.46-.16-.38-.32-.76-.47-1.15a3.12,3.12,0,0,1-.3-1.09c0-1.95.1-3.9.2-5.84,0-.73.23-1.46.3-2.19.18-1.9.31-3.82.51-5.72.05-.4.08-.8.11-1.2C58.49,49.77,58.47,50.59,58.44,51.4ZM44.7,59.06l-.94.31c-.1-.71-.6-.82-1.18-1a12.87,12.87,0,0,0-5.42-.14c-.94.12-1.88.19-2.81.25-1.23.08-2.47.11-3.81.17-.06-.54-.14-1-.15-1.51,0-.82,0-1.65,0-2.47a1.64,1.64,0,0,0-1.78-1.82c-.85,0-1.71,0-2.56,0a6.7,6.7,0,0,1-1.87-.34h2.17a19.72,19.72,0,0,0,10.28-2.67A6,6,0,0,0,39,47.27a16.31,16.31,0,0,0,1.72-6.88c0-1.33,0-2.65,0-4a10.57,10.57,0,0,0-.6-3.29,24.19,24.19,0,0,0-1-2.74,9.48,9.48,0,0,0-1.19-1.84c-.42-.54-.92-1-1.48-1.61l1.08.05a26.67,26.67,0,0,0,6.31-.34l2.18,0c0,.21,0,.4,0,.6-.16,4-.29,7.94-.5,11.92-.1,2.11-.41,4.22-.49,6.34C45,49,45,52.53,44.87,56,44.85,57,44.76,58,44.7,59.06ZM28,55a2.57,2.57,0,0,1-.52-.47,2.24,2.24,0,0,0-.36-.33l1.8,0c.35,1.61-.14,3-.09,4.44l-.48,0,0-.06A5,5,0,0,0,28.88,57,1.88,1.88,0,0,0,28,55ZM24.87,34.52a.92.92,0,0,0,1.13.21,3,3,0,0,1,1.71.57,4.34,4.34,0,0,1,1,3.7,6.25,6.25,0,0,1-.53,1.67,1.69,1.69,0,0,1-1.82,1.1,3.89,3.89,0,0,1-2-.44A3.06,3.06,0,0,1,23,39,5,5,0,0,1,24.87,34.52Zm13.82,1.22a10.12,10.12,0,0,1-.75-3,4.88,4.88,0,0,0-2.83-4.19c-.84-.42-1.7-.8-2.55-1.19.16-.3.47-.34.84-.4a1.9,1.9,0,0,1,2,.79.37.37,0,0,0,.12.13c2.36,1.94,3.18,4.65,3.8,7.47a1.65,1.65,0,0,1,0,.44c0,.85,0,1.7,0,2.55A10.81,10.81,0,0,0,38.69,35.74Zm-.11,9a16.06,16.06,0,0,1-.82,2A5,5,0,0,1,36,48.68a11,11,0,0,1-1.77.91,8.35,8.35,0,0,0,1.89-1.82c.57-.75,1.19-1.46,1.79-2.19C38.11,45.31,38.35,45.06,38.58,44.79ZM29.76,35a2.42,2.42,0,0,0-.29.58,4.36,4.36,0,0,0-2.39-2.26,2.91,2.91,0,0,0-2.44-.21l.5-.43A6.8,6.8,0,0,1,29.76,35ZM21,37.17a7.65,7.65,0,0,1,2.66-3.32c-1.19,1.23-2.14,2.6-1.93,4.44a4.23,4.23,0,0,0,1.39,3.77,4,4,0,0,0,2.17.95,2.07,2.07,0,0,1-.6,0c-.6-.14-1.22-.15-1.83-.25a1.49,1.49,0,0,1-1.28-1.06A7,7,0,0,0,21,40.55,3.47,3.47,0,0,1,21,37.17ZM33.88,15.08c0-.56,0-1.05,0-1.54,0,0,0,0,0-.07V15a.16.16,0,0,1,0,.09Zm0-4.16s0,0,0-.06a1.23,1.23,0,0,1-.18-.72c.07-.49.12-1,.2-1.47C33.88,9.42,33.88,10.17,33.89,10.92ZM22.42,52.29l.9,0v.09H22.4S22.41,52.33,22.42,52.29ZM52.81,82.2c-.24,0-.54.07-.7,0L51.86,82c.77,0,1.53.1,2.3.18Zm-26.37-.12a11.39,11.39,0,0,0,1.14.21A1.41,1.41,0,0,1,26.44,82.08ZM24,74.8a4.21,4.21,0,0,1-.2-1.22c0-1.36.06-2.73.09-4.09,0,.32,0,.65.06,1a22.52,22.52,0,0,0,.25,2.46,20.77,20.77,0,0,1,.28,3.51C24.31,75.89,24.14,75.35,24,74.8ZM68.16,36l-.06.51a2.93,2.93,0,0,0-.75-.51Zm-9.1-3.37c0,1,0,2-.08,3h-.85c0-.23,0-.37,0-.51a22,22,0,0,0-.49-4.92,14,14,0,0,1-.15-2.82c.06-2.3.18-4.59.28-6.89,0-.47,0-.94,0-1.42.08-1.52.19-3,.24-4.58a13.17,13.17,0,0,1,.4-3.06c.1-.38.2-.76.27-1.14.16,2.28.34,4.57.37,6.86C59.12,22.28,59.08,27.43,59.06,32.59ZM5.89,59.8c-.63.05-1.27.15-1.89.26a2.06,2.06,0,0,0-.44.14H2.38c0-.16,0-.34-.07-.62A17.81,17.81,0,0,1,5.89,59.8ZM2.38,67.41l.3.06h-.3Zm13.5,22,.06,0h-.06ZM71,90.1c0-.11,0-.21,0-.32.07-1.14,0-2.29,0-3.43a1.49,1.49,0,0,1,.14-.73,2.31,2.31,0,0,0,.24-.57c.12,1.67.24,3.32.36,5Zm.34-6.59a1,1,0,0,0-.08-.11h.07A.45.45,0,0,0,71.34,83.51ZM45.63,69.81a1.62,1.62,0,0,0,.1.18h-.1ZM66.28,41.93l-.36-.07a2,2,0,0,0,.86-1.07,3.24,3.24,0,0,1,1.37-1.57,14.24,14.24,0,0,0,.14,2.87A5.87,5.87,0,0,1,66.28,41.93Zm27.26,12.4a2,2,0,0,0,.68-.8.61.61,0,0,1,.61-.39c0,.41-.09.81-.14,1.22Zm10.65,34.53.21-.59c.08-.22.16-.45.23-.67,0,.4-.09.81-.14,1.26Zm3.13-29.81c-.21,3.09-.47,6.17-.75,9.25-.25,2.69-.56,5.38-.8,8.08-.14,1.59-.16,3.18-.3,4.76-.06.73-.16,1.45-.27,2.17a29,29,0,0,0-.28-4.83c-.22-1.49-.48-3-.6-4.47a30.76,30.76,0,0,1,.29-5.83c.2-1.84.42-3.69.6-5.54.14-1.31.22-2.64.35-4,.08-.91.27-1.82.31-2.73a7.05,7.05,0,0,1,.51-2.49,6.75,6.75,0,0,0,.57-2.93,17.66,17.66,0,0,1,.51-4.22H108a1.11,1.11,0,0,1,.09.31C107.84,50.76,107.61,54.91,107.32,59.05Zm.83-14.3h0v.1S108.17,44.79,108.15,44.75Zm2.33.13c.88,0,1.76.06,2.64.07h0A4.91,4.91,0,0,1,110.48,44.88Zm12.21,45.49c0,.24,0,.44-.06.64a.6.6,0,0,0,.42.69.63.63,0,0,0,.81-.36c.16-.33.3-.68.44-1,.12,0,.15,0,.17.06s.06,0,.06,0c-.07,1.1-.14,2.19-.22,3.28a2.76,2.76,0,0,0-1.75-2.2,13,13,0,0,0-3.74-.91c-2.22-.08-4.44,0-6.67.06v-.3Zm-3.42,30.3.12,0,.09.34-.14,0C119.32,120.89,119.29,120.78,119.27,120.67Zm4.24-20.75c.21-1.22.42-2.44.64-3.65-.08,1.14-.15,2.28-.23,3.4A1,1,0,0,1,123.51,99.92Zm9.42,7.58a.56.56,0,0,1,0-.12,5.74,5.74,0,0,0,.13-.65,5.93,5.93,0,0,0,.57-.3v1ZM160.57,110a2.18,2.18,0,0,1-.25,0h1.36C161.31,110,160.94,110,160.57,110Zm8.08,4.45-1.13.11a36.23,36.23,0,0,0,1-3.68,1.88,1.88,0,0,0-.18-1.29,6.92,6.92,0,0,1,1,.1C169.44,111.32,168.76,112.78,168.65,114.4Zm-35-13.24v.65a2.61,2.61,0,0,0-1.46-.5l-2-.15Zm-1.46-69.37c-.06.45-.1.9-.14,1.35L132,24.21c0-.41.05-.82.09-1.23.26-2.23.57-4.45.76-6.68.11-1.35,0-2.71,0-4.07,0-.35,0-.69,0-1l.15-.1c0,.91-.1,1.83-.11,2.74,0,3.12.08,6.25,0,9.37C132.81,26.1,132.54,29,132.21,31.79ZM162,57.58v.83h-.07c0-.27,0-.55,0-.82Zm5.25-16.16c-.07.67-.14,1.35-.22,2,0-.27,0-.55,0-.83A3.1,3.1,0,0,1,167.23,41.42ZM163.15,12.2v0h0Zm-1.6,9.7a41,41,0,0,1,.58-5.11c0,.45,0,.91,0,1.37a18.07,18.07,0,0,1,0,4c-.34,2.17-.78,4.31-1.24,6.46.06-.44.13-.87.18-1.31C161.29,25.48,161.49,23.69,161.55,21.9Zm-14,14.56c-1.59-.14-2.5-1.22-3.33-2.4a7.44,7.44,0,0,1,1.44-7,4,4,0,0,1,.5-.41l2.42-.12a.47.47,0,0,0,.42,0l1-.05a4.72,4.72,0,0,1,2.75.84c0,.42-.09.77-.09,1.12a3.38,3.38,0,0,1-.45,2.09,1.64,1.64,0,0,0,.13,1.84A2.37,2.37,0,0,1,151.25,36,7,7,0,0,1,147.54,36.46Zm-4.88-5.81a5.58,5.58,0,0,1,.47-2.2,3,3,0,0,1,.49-.77A8.93,8.93,0,0,0,142.66,30.65Zm14.54,6.68a36.15,36.15,0,0,1-1.61,3.24,3,3,0,0,1-1.94,1.27l-.08,0A5,5,0,0,0,154.8,41a6.73,6.73,0,0,0,2.1-4,14.55,14.55,0,0,1,.73-3.08,6.15,6.15,0,0,0,.25-4.14,5.13,5.13,0,0,1-.14-1.3c0-.53,0-1.06,0-1.59h0c0-.45,0-.89,0-1.33a3.66,3.66,0,0,0-.1-1.2,11.55,11.55,0,0,1,.94,4.56A21.91,21.91,0,0,1,157.2,37.33Zm-22,9.7-.43.39A.44.44,0,0,1,135.18,47Zm-.59,4.42V51a5.38,5.38,0,0,0,.93.33A4.68,4.68,0,0,1,134.59,51.45ZM157.92,55a28.77,28.77,0,0,0,.05,4.15,5.27,5.27,0,0,1-.31,2.68,1.86,1.86,0,0,0,1.15,2.5l-1.29,0A77.62,77.62,0,0,1,157.92,55ZM170,24.58c-.3,1.1-.54,2.2-.76,3.31.07-.5.13-1,.2-1.5.36-2.5.8-5,1.22-7.5a1.06,1.06,0,0,1,.34-.66c.08-.06.13-.13.2-.19-.06.48-.12,1-.2,1.44C170.75,21.19,170.49,22.91,170,24.58Z"/><path d="M169.91,145.7a17,17,0,0,0-3.24-.33c-2.11.1-4.22.32-6.32.6a43.44,43.44,0,0,1-6.94.6c-1.46,0-2.93.1-4.4.16-.14,0-.28,0-.5,0,.25-1.63.48-3.19.72-4.8a12.21,12.21,0,0,1,1.72,0c.75.12.86.16,1.17-.33a64.16,64.16,0,0,0,9.8-.27H163a12.45,12.45,0,0,0,2.36-.26,2.68,2.68,0,0,0,2.1-2.31c.13-1.43.21-2.87.29-4.31s.16-2.77.19-4.15a21.75,21.75,0,0,0,0-3.52,7.52,7.52,0,0,1-.18-3c.16-.61-.08-.91-.74-1.06a12.46,12.46,0,0,0-2-.28c-2.26-.13-4.53-.21-6.79-.35-.85,0-1.68-.29-2.53-.34-1.77-.11-3.54-.12-5.3-.21-1.14,0-2.29-.19-3.43-.28s-2.34-.18-3.52-.23c-.6,0-.86.23-.87.74s0,.88,0,1.32l-.07,0a1.91,1.91,0,0,0-1.24,1.78,1.83,1.83,0,0,0,1.08,1.78,1.89,1.89,0,0,0,.21.09c0,.67.39.9,1.13.68a6.44,6.44,0,0,1,1.66-.26l1.32.1c.25,0,.5.1.75.17a3.29,3.29,0,0,0,.43.09c2.25.29,4.49.6,6.74.87a8.38,8.38,0,0,1,2.78.77,9.24,9.24,0,0,0-.37,4.39,20,20,0,0,1-3.28-.08,18.51,18.51,0,0,0-4.4,0,10.18,10.18,0,0,1-4.46-.09,8.79,8.79,0,0,0-2.18-.25c-.81,0-1,.13-1.16.9a10.5,10.5,0,0,0-.24,1.93c0,.46,0,.91-.06,1.37a20.92,20.92,0,0,0-1.12,9.09l.06.76c0,.48-.07.95-.09,1.42-.1,1.82-.11,3.65-.16,5.48,0,.92.19,1.21,1.12,1.34.74.11,1.47.21,2.21.29a1.67,1.67,0,0,1,.18.28,2.1,2.1,0,0,0,2,1.28c2.38.08,4.77.14,7.16.24.58,0,1.17.11,1.75.18a31.45,31.45,0,0,0,3.32.44c3,.07,6,.06,8.94.06a2.12,2.12,0,0,0,2.09-1.59,2.12,2.12,0,0,1,.34-.69,2,2,0,0,0,.48-2,1.86,1.86,0,0,1,0-.53,11.22,11.22,0,0,1,.84-3.56,2.11,2.11,0,0,0-.34-2.16,3.83,3.83,0,0,1,.6-.94A.72.72,0,0,0,169.91,145.7Zm-2.58,1c.43,0,.86.07,1.36.12,0,.12-.07.25-.1.38a1.38,1.38,0,0,0-.2,0,8.81,8.81,0,0,0-.89,0c-1.59,0-3.18.11-4.76.11l-2.45,0A41.48,41.48,0,0,1,167.33,146.69Zm-19.56-4.56h.08c-.08.55-.16,1.08-.24,1.62C147.64,143.21,147.69,142.67,147.77,142.13Zm-1.71-7-.07-.1h.17A.81.81,0,0,0,146.06,135.16ZM165,139.83l-.5.1a5.52,5.52,0,0,0,.29-1,2.1,2.1,0,0,0,1.49-1.33l-.06.85A1.69,1.69,0,0,1,165,139.83Zm1.39-4c0-.9,0-1.79,0-2.67,0,.68,0,1.36,0,2Zm-.11-11.93c-.08,1.14-.17,2.22-.25,3.3a.71.71,0,0,0-.15-.08c-.13-.06-.25-.14-.38-.21l.16-.54a2,2,0,0,0-1.25-2.59Zm-9.92-.69.57.08q-2.22-.11-4.44-.24c-.31,0-.62-.06-.92-.09l3.12.07A9.38,9.38,0,0,1,156.31,123.23ZM141.24,154l.22.12a2.11,2.11,0,0,1,.31.21,4.34,4.34,0,0,1-.53-.15Z"/><path d="M128.76,129.05a1.72,1.72,0,0,0-.25.21,5.63,5.63,0,0,0-1.3-.35c-1.89,0-3.77,0-5.66.05s-3.81,0-5.72,0c-1,0-2-.34-3.06-.35-3-.05-6-.15-8.92,0a55.28,55.28,0,0,1-8.73-.12c-.56-.06-1.17,0-1.63-.5-.1-.12-.48,0-.71,0s-.45.25-.68.29c-.66.1-.82.24-.75.91s.18,1.1.22,1.66c0,.06,0,.11,0,.17a2.14,2.14,0,0,0-.06.63,1,1,0,0,1-.37.92,1.86,1.86,0,0,0-.53,2.1,5.81,5.81,0,0,1,.2.94,1.94,1.94,0,0,0,2,1.63,1.08,1.08,0,0,0,.21.05,9.84,9.84,0,0,0,2,0c1.3-.14,2.61-.28,3.93-.37a104.17,104.17,0,0,0,17.61,1.05c-.08,1.71-.25,3.24-.21,4.77,0,.42,0,.84.06,1.26a40.3,40.3,0,0,0-.31,4.38q0,3.59,0,7.16c0,.13,0,.26,0,.39a1.93,1.93,0,0,0-.51,2.31,2,2,0,0,0,2.28,1.09,14.73,14.73,0,0,1,3.69-.24,3.21,3.21,0,0,0,.62,0,2.31,2.31,0,0,0,1.29-.54c.36,0,.72-.07,1.07-.12.63-.07.77-.25.88-.9s.18-1.11.26-1.66c.45-3.14.95-6.28,1.32-9.44.29-2.45.41-4.92.61-7.39,0-.46,0-.93.61-1.15.19-.07.3-.41.42-.64,1.22-2.48,1.13-5.14,1.06-7.79C129.76,129,129.27,128.75,128.76,129.05Zm-1.64,1.69-.07,0h.07Zm-.56-.15a.72.72,0,0,0,.33.1c-.61-.08-1.24-.1-1.87-.15l.14,0A1.16,1.16,0,0,1,126.56,130.59Zm-33.71-.91,0,0v0Zm32.88,16.54c0-.42,0-.84,0-1.25a18.57,18.57,0,0,1,.58-4.83c0,.52-.06,1-.11,1.54C126.05,143.2,125.89,144.71,125.73,146.22Z"/><path d="M91.09,126a16.61,16.61,0,0,1,3.8-5.79c1.09-1.07,2.23-2.09,3.37-3.12a19.81,19.81,0,0,0,2.11-2.29,2.46,2.46,0,0,0,2.53-1.22,21.73,21.73,0,0,0,1.42-2.43,1.08,1.08,0,0,0,.13-.76,6.37,6.37,0,0,1,0-1.9s0-.09,0-.14a3.13,3.13,0,0,1,.42-.47,3.51,3.51,0,0,0,1-2.52c0-.55.06-1.11.1-1.67.1-1.35.2-2.7.31-4,0-.5.1-1,.12-1.49a.68.68,0,0,0-.6-.75c-.89-.21-1.76-.47-2.65-.67a34.06,34.06,0,0,0-5.88-.48c-1.62-.1-3.25,0-4.86-.09s-3.33-.46-5-.58a33.19,33.19,0,0,0-4.23,0,7,7,0,0,0-1.1.18,5.57,5.57,0,0,0-2-.51,1.9,1.9,0,0,0-1.7.76,2.23,2.23,0,0,0-.08,2.79,1.89,1.89,0,0,1,.37,1.38,1.76,1.76,0,0,0,.9,1.79h0c0,.48,0,1,0,1.43,0,1,.19,1.21,1.18,1.22.05,0,.09.09.15.13a2.57,2.57,0,0,0,2,.38,26.46,26.46,0,0,1,3.06-.32c2.36-.06,4.72,0,7.08,0,.26,0,.52,0,.83,0a4.32,4.32,0,0,0,.11,2A4,4,0,0,1,93,108.4a17.08,17.08,0,0,0-1.38,1.95l-.67.89a14.37,14.37,0,0,0-1.66,1.65c-.73.85-1.49,1.67-2.22,2.51s-1.63,1.8-2.34,2.77a3.08,3.08,0,0,0-.48.91l-.52.51c-.73.69-.77,1,0,1.74a6.52,6.52,0,0,0,.94.8c.88.62,1.75,1.26,2.56,2a2.36,2.36,0,0,0,.93.88,11.45,11.45,0,0,1,1.18,1.32C90,127.08,90.72,126.91,91.09,126Zm.42-3.58-.28-.54a2,2,0,0,0,.87-.36C91.9,121.79,91.7,122.09,91.51,122.39Zm13.42-22.94a2.21,2.21,0,0,0-1-.94,2.75,2.75,0,0,1-.53-.36c.52.14,1,.3,1.59.46C105,98.9,105,99.17,104.93,99.45Z"/><path d="M18.49,128.1a2,2,0,0,0,1.77,1.52,3.16,3.16,0,0,0,1,0h.06c.43,1,.86,1.89,1.3,2.83l.42.86a3.21,3.21,0,0,0,.86,1.6.83.83,0,0,0,.07.13c.41.69.89.89,1.46.65a3.72,3.72,0,0,0,3-.5c1.23-.81,2.53-1.51,3.79-2.28,1.7-1.06,3.38-2.15,5.09-3.2,1.25-.76,2.51-1.53,3.82-2.19,2-1,3.94-1.86,5.92-2.78a2.27,2.27,0,0,1,.34,0l0,0a6,6,0,0,0,.83,3.2l.58,1.1c.27.5.57,1,.87,1.46a17.36,17.36,0,0,0,1.37,2.68c1.28,2.05,2.61,4.06,3.95,6.07.48.71.88.78,1.53.24l.17-.12a2.26,2.26,0,0,0,1.38-.73l.32.17a2,2,0,0,0,3-1.6l.74-.32a1.48,1.48,0,0,0,1-1.36,2.75,2.75,0,0,0-.76-2,23,23,0,0,1-3-5.58c-.39-1-.92-2-1.41-2.94-.27-.56-.57-1.1-.89-1.63-.57-.93-1.15-1.84-1.74-2.76-.13-.2-.28-.41-.42-.61a1.52,1.52,0,0,0,.06-.2c0-.47.31-.63.68-.8.88-.41,1.76-.84,2.62-1.27a1.67,1.67,0,0,0,1-1.1,1.23,1.23,0,0,1,.09-.23l0,0c.43-.41.84-.82,1.26-1.24a1.39,1.39,0,0,0,.51-.32,11.46,11.46,0,0,1,2.75-2c.25-.15.48-.44.73-.46a5,5,0,0,0,2.24-1,3.62,3.62,0,0,0,.85-.72,6,6,0,0,0,.58-.35.44.44,0,0,1,.24-.09c.86,0,1-.52,1.09-1.19.11-1,.25-2,.36-3.07a10.7,10.7,0,0,0,1.15-1.37,1.85,1.85,0,0,0-.57-2.76l-.21-.18a21.12,21.12,0,0,1,.67-2.91,5,5,0,0,0,.24-1.21c0-.7-.23-1-.93-1H68.84A42.48,42.48,0,0,1,59.69,96a14.54,14.54,0,0,0-2.61-.38c-3.57-.07-7.13-.1-10.7-.13H43.66a4.08,4.08,0,0,0-1,0H41.61c-.83,0-1.66,0-2.48-.11-1.87-.19-3.74-.45-5.61-.64-1.61-.17-3.22-.3-4.84-.44-.41-.73-.43-.74-1.2-.52a1.59,1.59,0,0,1-.43.06,1,1,0,0,0-1,.51.63.63,0,0,0,.41,1.06,5.12,5.12,0,0,0,.7,0c0,.21.05.35.05.49v.37a2,2,0,0,0,0,3.74,18.8,18.8,0,0,1-.37,3.73c-.23,1.06.11,1.38,1.2,1.37h.75a2.42,2.42,0,0,0,1,.35,11,11,0,0,0,1.15,0c1.09,0,2.18,0,3.27.09,2.61.18,5.23.4,7.84.59,3.23.23,6.48.19,9.7.71.66.11,1.33.16,2,.21q-2.36,1.27-4.72,2.54c-.2.11-.43.19-.64.28-.54.22-1.1.4-1.62.67a17.59,17.59,0,0,1-5.24,1.75c-1,.17-1.27.71-1,1.53,0,.13.12.25.19.4a2.94,2.94,0,0,1-.43.22,15.29,15.29,0,0,0-3.29,1.86,19.61,19.61,0,0,1-3.34,2c-1.59.75-3.26,1.34-4.89,2a9.4,9.4,0,0,0-1.13.49c-1.41.8-2.82,1.59-4.21,2.42a9.92,9.92,0,0,1-3.6,1.37c-.7.11-.91.6-.55,1.23a.35.35,0,0,0,0,.08l-.14.08A1.87,1.87,0,0,0,18.49,128.1Zm37.14-4.5c.43.84.92,1.64,1.35,2.48a22.27,22.27,0,0,1,1,2.16,24.16,24.16,0,0,0,3.22,6.06,2.81,2.81,0,0,1,.39.58c.18.38.16.62-.11.81a2,2,0,0,0-1-1.67,2,2,0,0,1-.7-.74c-1.13-2.24-2.23-4.49-3.34-6.73-.39-.79-.75-1.6-1.17-2.37-.51-.92-1.08-1.82-1.64-2.75l.4-.28A16.29,16.29,0,0,1,55.63,123.6Zm12.52-14.83,0,0a4.18,4.18,0,0,0-.23-.89.49.49,0,0,1,0-.18l.4-.34C68.27,107.85,68.21,108.31,68.15,108.77Zm.75-11h.9c-.08.31-.14.57-.21.81a2.73,2.73,0,0,0-1.1-.81Zm-28.73-1c.25,0,.5,0,.76,0,0,0,0,0,0,0-.66,0-1.25,0-1.83,0a7.21,7.21,0,0,1-2.94-.47l-.24-.08Zm-9.2-1a3.69,3.69,0,0,1-2.06.38h-.3c0-.12,0-.25,0-.37C29.43,95.84,30.21,95.8,31,95.82Zm-2.89,26.4a.39.39,0,0,1,.11-.06l-.75.45a2.64,2.64,0,0,1-.38.18C27.4,122.6,27.73,122.4,28.08,122.22Z"/><path d="M76.69,149.86c-.13-.65-.19-.82-.92-.87a15.59,15.59,0,0,0-3.61-.05,25.2,25.2,0,0,1-4.33.28,4.13,4.13,0,0,1-1.07-.28,2.28,2.28,0,0,0-.86-.18c-1.5,0-3,0-4.5.07-.18,0-.35,0-.53,0l-7.65-.61c-1.53-.12-3.06-.22-4.59-.37a4.67,4.67,0,0,1-.52-.08c0-.74.11-1.38.11-2,0-2.48,0-4.95.06-7.43a12.38,12.38,0,0,1,.23-2,3.36,3.36,0,0,0-.14-1.91,1.12,1.12,0,0,0-.8-.75,11.59,11.59,0,0,0-1.64-.32,16.59,16.59,0,0,1-4.13-.86,8.6,8.6,0,0,0-2.07-.39c-1-.07-1.27.25-1.08,1.26,0,.16.11.32.16.49a3.52,3.52,0,0,1,.23.81c0,3.06,0,6.13,0,9.2a3,3,0,0,1-.38,1.78,1.52,1.52,0,0,0-.13.73l-1.08.1a2.45,2.45,0,0,0-.78.13,2,2,0,0,1-.88.24,29.9,29.9,0,0,0-4.64-.47c-2.66,0-5.3.21-7.94.43-.57.05-1.15.11-1.72.18a10.32,10.32,0,0,1-3.28-.68,10.64,10.64,0,0,0-4.61-.59,1.65,1.65,0,0,0-.77.18,2,2,0,0,1-1.53.16A1.92,1.92,0,0,0,8.83,148c0,.7.08,1.41.1,2.12.07,1.9,1,3.55,1.61,5.29a2,2,0,0,0,1.59,1.28,19.65,19.65,0,0,0,2.18.25,25,25,0,0,0,5.16-.65l1.12-.13,5.75.09a3,3,0,0,0,2.5,1,18.85,18.85,0,0,0,4.91-.46,14.46,14.46,0,0,1,2.93-.33c.91.07,1.83.17,2.74.3,2.14.31,4.3.45,6.46.6l.86.13c2.58.43,5.16.89,7.76,1.23a12.48,12.48,0,0,0,3.61,0,12.54,12.54,0,0,1,2.51-.23c1.48,0,3,.09,4.42.16l6.43.35c.12,0,.24,0,.35,0,.94.09,1.88.19,2.81.26a3.39,3.39,0,0,0,3.49-3.25c0-.88.22-1.75.31-2.62a10.5,10.5,0,0,0,0-1.77A1.91,1.91,0,0,0,76.69,149.86ZM47.18,135c0,.12,0,.24,0,.36a2.66,2.66,0,0,0-.94-.46,3.91,3.91,0,0,0-1-.14c-1.24,0-2.48,0-3.71,0a2.37,2.37,0,0,0-1.18.32c0-.5,0-1,0-1.49Z"/><path d="M141.73,103.47a6.45,6.45,0,0,0,.14.88,2.79,2.79,0,0,0,3,2.43l1.89,0c.55.12,1.11.22,1.67.29a18.26,18.26,0,0,0,7.36-.23c.6-.17,1.2-.31,1.81-.44l3.9-.14a7,7,0,0,0,1.58-.16c.35-.1.7-.22,1.05-.34.91-.1,1.82-.24,2.73-.4A1.29,1.29,0,0,0,168.1,104c0-.11,0-.22,0-.33a2.13,2.13,0,0,0,0-1.69l0-.08c0-.57,0-1.14,0-1.7a1,1,0,0,0-.78-1c-.82-.23-1.62-.54-2.44-.77a18.79,18.79,0,0,0-7.35-.43c-.9.12-1.79.37-2.69.5-1.62.24-3.25.45-4.88.66a8.55,8.55,0,0,1-2.53.19c0-1.33-.1-2.63-.15-4,0-.4,0-.8.08-1.21,1.29-.08,2.44-.15,3.59-.24l.95,0c1.14,0,2.29-.09,3.44-.1s2.59,0,3.89,0l4.93.09s0,0,0,0a1.81,1.81,0,0,0,2.07.57,2.1,2.1,0,0,0,1.49-1.91c.09-1.26.15-2.52.15-3.78,0,0,0-.06,0-.09,0-.18,0-.35,0-.53a1.61,1.61,0,0,0,0-.44.65.65,0,0,0-.81-.54,2.21,2.21,0,0,0-1.5-.33,7.77,7.77,0,0,1-1,.09l-5.71-.12a1,1,0,0,1-.91-.4,1.43,1.43,0,0,0-1.7-.13,2.13,2.13,0,0,1-1.26.54l-1.16.19-2.61,0c-.35,0-.7,0-1.06.08-1.79.15-3.58.3-5.37.43-.44,0-.88,0-1.32,0a2.52,2.52,0,0,0-2.41,3.5,2.93,2.93,0,0,1,.1.84c0,.32-.07.65-.05,1Q141.44,98.13,141.73,103.47Zm20.5-4.27v.09H158V99.2Z"/></g></g></svg>