<svg xmlns="http://www.w3.org/2000/svg" viewBox="0 0 135.18 361.13">
    <defs>
        <style>
            .cls-1 {
                font-size: 24px;
                fill: #231f20;
                font-family: ArialMT, Arial;
            }
        </style>
    </defs>
    <g id="Layer_2" data-name="Layer 2">
        <g id="Layer_1-2" data-name="Layer 1"><text class="cls-1" transform="translate(48.25 153.21)">Min<tspan
                    x="-4.68" y="28.8">Shin</tspan></text>
            <path
                d="M44.87,361.13a15.64,15.64,0,0,1-3.8-.48c-.89-.23-1.8-.44-2.71-.65a57.16,57.16,0,0,1-6.86-1.91A36.32,36.32,0,0,1,13,343.42c-2.6-4.08-5.24-8.52-8.59-14.42A32.6,32.6,0,0,1,0,311.12c.11-2.3.09-4.68.07-7,0-1.79,0-3.63,0-5.47a112.67,112.67,0,0,1,2-17.49l0-.07A127.65,127.65,0,0,1,7.24,263c.49-1.32.9-2.66,1.33-4.08.54-1.75,1.1-3.56,1.81-5.33,1.22-3,2.59-6,3.91-8.9.6-1.31,1.19-2.62,1.78-3.93a16.08,16.08,0,0,0,1.08-8.9,66.82,66.82,0,0,0-4-14.27c-2.14-5.77-4.56-12.32-5.5-19.25A41.2,41.2,0,0,1,7.81,185c.13-.65.24-1.31.36-2,.65-3.68,1.32-7.49,3.27-11,2.19-4,4.14-8.13,6-12.18,1.08-2.32,2.2-4.73,3.36-7.08a48.19,48.19,0,0,1,3.7-6.09,36.61,36.61,0,0,0,5.69-12.11q.9-3.6,1.83-7.19c1-3.75.85-7.69-.39-12.79a39.67,39.67,0,0,1-1.36-7.94c-.16-4.15-.12-8.35-.07-12.4l0-3.09a16,16,0,0,1,.32-2.66l.11-.59a167.3,167.3,0,0,1,5.4-21c1.21-4,2.29-7.87,3.21-11.55A91.36,91.36,0,0,1,45.41,39c1.35-2.87,2.88-5.87,4.57-8.91a42.51,42.51,0,0,1,6.5-8.71,158.39,158.39,0,0,1,16-15.26A27.33,27.33,0,0,1,94.74.43a70.15,70.15,0,0,1,23.13,7.7c7.29,4.09,12.21,9.52,15,16.6A27.42,27.42,0,0,1,134.81,40l-.22,1.22c-.93,5.32-1.89,10.82-4.18,16A31.51,31.51,0,0,1,126,64.4c-4.82,5.95-9.16,11.32-13.47,16.79A25.08,25.08,0,0,0,107.19,93c-.62,4-1.47,7.92-2.3,11.74l-.19.91c-.41,1.92,0,3,1.61,3.95l3.17,1.83c1,.55,1.92,1.1,2.87,1.66,1.34.77,2.64,1.54,4,2.35A19.26,19.26,0,0,1,125,127.78c1.16,4.86,1.25,9.6,1.26,14.86,0,.67,0,1.35,0,2,0,1.3,0,2.65,0,4-.25,6-1.68,11.69-3.25,17.48a31.69,31.69,0,0,1-6.11,11.5,39.26,39.26,0,0,0-2.67,3.79,51.2,51.2,0,0,1-11.94,13.23,20.24,20.24,0,0,0-3.46,3.47,67.15,67.15,0,0,0-8.42,14.05,14.52,14.52,0,0,0-.92,2.83c-.71,3.44-1.64,8-2.48,12.65a48.86,48.86,0,0,0-.53,11.69,28.2,28.2,0,0,0,3.46,11.67A62.51,62.51,0,0,0,102.8,268c.43.4.84.82,1.24,1.25s.54.57.82.84c4.09,4,5.86,9,5.41,15.25a159.77,159.77,0,0,1-3,19.58L107,306.3a92,92,0,0,1-3.6,13.45,25.29,25.29,0,0,1-4.7,8c-2.92,3.43-5.23,6.28-7.27,9a44.1,44.1,0,0,1-7.87,8.38,15,15,0,0,1-8.79,3.37,3.31,3.31,0,0,0-1.87.71c-.62.44-1.23.89-1.85,1.35a48.44,48.44,0,0,1-5.33,3.56A84.48,84.48,0,0,1,51,359.87l-1.66.54A14.41,14.41,0,0,1,44.87,361.13ZM7,282.13A106.74,106.74,0,0,0,5.13,298.8c0,1.75,0,3.55,0,5.3,0,2.37,0,4.82-.08,7.26a27.29,27.29,0,0,0,3.73,15.18c3.3,5.81,5.91,10.19,8.46,14.19a31.36,31.36,0,0,0,16,12.67,53.53,53.53,0,0,0,6.27,1.73c.94.21,1.88.43,2.81.67a9.69,9.69,0,0,0,5.5-.14l1.67-.55a79.17,79.17,0,0,0,13.79-5.44,41.75,41.75,0,0,0,4.76-3.2l1.94-1.4a8.23,8.23,0,0,1,4.55-1.63,10,10,0,0,0,5.91-2.3,39.76,39.76,0,0,0,7-7.46c2.1-2.77,4.47-5.7,7.45-9.2a20.52,20.52,0,0,0,3.81-6.42A86.41,86.41,0,0,0,102,305.33l.29-1.42a154.46,154.46,0,0,0,3-19c.34-4.8-.9-8.4-3.9-11.32-.33-.31-.64-.64-.95-1s-.67-.71-1-1a67.45,67.45,0,0,1-13.9-18.25,33.14,33.14,0,0,1-4-13.72,54.37,54.37,0,0,1,.61-12.86c.85-4.71,1.78-9.3,2.51-12.78a20,20,0,0,1,1.21-3.79,72.16,72.16,0,0,1,9-15.09,24.76,24.76,0,0,1,4.33-4.36,46.44,46.44,0,0,0,10.8-12,46.07,46.07,0,0,1,3-4.26,26.67,26.67,0,0,0,5.2-9.71c1.5-5.49,2.86-10.88,3.08-16.37,0-1.22,0-2.44,0-3.73,0-.7,0-1.41,0-2.11,0-4.94-.09-9.37-1.12-13.7a14.25,14.25,0,0,0-6.47-9.26c-1.25-.78-2.51-1.52-3.81-2.27-1-.56-1.9-1.1-2.85-1.65s-2.14-1.22-3.2-1.84c-3.48-2-4.85-5.26-4-9.32l.2-.91c.8-3.76,1.64-7.64,2.25-11.47a30.26,30.26,0,0,1,6.31-14.12c4.33-5.5,8.68-10.89,13.51-16.85a26.22,26.22,0,0,0,3.75-6c2-4.67,2.92-9.64,3.84-14.9l.21-1.23a22.45,22.45,0,0,0-1.62-12.5c-2.38-6-6.58-10.59-12.84-14.1a65.15,65.15,0,0,0-21.5-7.13A22.48,22.48,0,0,0,75.61,10c-5.38,4.25-10,9-15.5,14.79a37.26,37.26,0,0,0-5.76,7.69c-1.63,2.94-3.11,5.83-4.41,8.6a86.48,86.48,0,0,0-5.81,15.47c-.94,3.76-2,7.73-3.28,11.8A164,164,0,0,0,35.6,88.76l-.12.66a11.83,11.83,0,0,0-.24,1.79l0,3.11c0,4-.09,8.13.07,12.16a36.53,36.53,0,0,0,1.21,6.94c1.44,5.86,1.56,10.7.38,15.23q-.91,3.57-1.82,7.14a41.39,41.39,0,0,1-6.43,13.76A42.39,42.39,0,0,0,25.3,155c-1.13,2.29-2.24,4.67-3.31,7-1.92,4.12-3.9,8.39-6.17,12.49-1.55,2.8-2.12,6-2.73,9.47l-.36,2a36.16,36.16,0,0,0-.09,11.66c.87,6.38,3.19,12.65,5.24,18.18a71.7,71.7,0,0,1,4.22,15.35,20.81,20.81,0,0,1-1.47,11.6c-.59,1.32-1.19,2.64-1.79,4-1.3,2.84-2.65,5.78-3.82,8.69-.64,1.58-1.14,3.2-1.67,4.93-.43,1.42-.89,2.9-1.42,4.35A123.52,123.52,0,0,0,7,282.13Z" />
        </g>
    </g>
</svg>