<svg id="Layer_1" data-name="Layer 1" xmlns="http://www.w3.org/2000/svg" viewBox="0 0 106 258">
    <defs>
        <style>
            .cls-1 {
                fill: #858585;
            }

            .cls-2 {
                font-size: 16.47px;
                fill: #231f20;
                font-family: ArialMT, Arial;
            }
        </style>
    </defs>
    <g id="minShin">
        <path class="shape" d="M55 0 32 30 6 128 0 223 17 258 58 257 90 226 106 20 94 6 55 0" />
        <path
            d="M38.92,254.4a10.28,10.28,0,0,1-2.61-.34l-1.86-.44a37.62,37.62,0,0,1-4.71-1.31,24.83,24.83,0,0,1-12.69-10.07c-1.79-2.8-3.61-5.85-5.9-9.89a22.33,22.33,0,0,1-3-12.27c.08-1.58.06-3.22,0-4.8,0-1.22,0-2.49,0-3.75a76.66,76.66,0,0,1,1.36-12v-.05A87.77,87.77,0,0,1,13.09,187c.33-.91.62-1.83.92-2.8.36-1.2.75-2.44,1.24-3.66.83-2.07,1.77-4.13,2.68-6.11.41-.9.82-1.79,1.22-2.69a11,11,0,0,0,.74-6.11,46.33,46.33,0,0,0-2.71-9.8,62,62,0,0,1-3.78-13.21,28.41,28.41,0,0,1,.08-9.1c.09-.44.17-.89.25-1.34A23.24,23.24,0,0,1,16,124.63c1.5-2.71,2.83-5.58,4.13-8.36.74-1.59,1.5-3.24,2.3-4.85A33,33,0,0,1,25,107.23a25,25,0,0,0,3.91-8.31c.4-1.64.83-3.29,1.25-4.93a17.27,17.27,0,0,0-.27-8.77,27.29,27.29,0,0,1-.93-5.45c-.11-2.85-.08-5.73-.05-8.52l0-2.12a9.86,9.86,0,0,1,.22-1.82l.07-.41a116.63,116.63,0,0,1,3.7-14.4c.84-2.74,1.58-5.41,2.21-7.93a62.16,62.16,0,0,1,4.21-11.25c.92-2,2-4,3.13-6.11a29.56,29.56,0,0,1,4.47-6,108.59,108.59,0,0,1,11-10.47A18.78,18.78,0,0,1,73.14,6.85,48.06,48.06,0,0,1,89,12.14,22.24,22.24,0,0,1,99.33,23.53,18.83,18.83,0,0,1,100.64,34l-.15.83a47.19,47.19,0,0,1-2.87,11,21.34,21.34,0,0,1-3.05,4.93c-3.31,4.08-6.28,7.76-9.24,11.52a17.09,17.09,0,0,0-3.64,8.11c-.43,2.71-1,5.43-1.58,8l-.13.62a2.16,2.16,0,0,0,1.1,2.72L83.25,83l2,1.14c.91.53,1.81,1.06,2.71,1.62a13.23,13.23,0,0,1,6,8.47,43.67,43.67,0,0,1,.86,10.19c0,.46,0,.93,0,1.39,0,.9,0,1.83,0,2.76a53.46,53.46,0,0,1-2.23,12,21.67,21.67,0,0,1-4.19,7.89,27.09,27.09,0,0,0-1.83,2.6,35.26,35.26,0,0,1-8.19,9.08,13.76,13.76,0,0,0-2.38,2.39,46.39,46.39,0,0,0-5.78,9.63,10.47,10.47,0,0,0-.63,1.95c-.49,2.36-1.13,5.49-1.7,8.68a33.69,33.69,0,0,0-.37,8,19.37,19.37,0,0,0,2.38,8,42.91,42.91,0,0,0,8.83,11.61c.3.27.58.56.86.85s.37.39.56.58a12.54,12.54,0,0,1,3.71,10.47,108.63,108.63,0,0,1-2.09,13.43l-.19,1A63.43,63.43,0,0,1,79.05,226a17.49,17.49,0,0,1-3.23,5.47c-2,2.35-3.59,4.31-5,6.16a30.78,30.78,0,0,1-5.4,5.75,10.41,10.41,0,0,1-6,2.31,2.26,2.26,0,0,0-1.28.49c-.43.3-.85.61-1.27.92a32.85,32.85,0,0,1-3.66,2.45,57.87,57.87,0,0,1-10,4L42,253.9A9.94,9.94,0,0,1,38.92,254.4Zm-26-54.22a73,73,0,0,0-1.3,11.44c0,1.2,0,2.44,0,3.63,0,1.63,0,3.32-.05,5a18.66,18.66,0,0,0,2.56,10.41c2.26,4,4.05,7,5.8,9.75a21.57,21.57,0,0,0,11,8.69,36.82,36.82,0,0,0,4.3,1.19l1.93.46a6.65,6.65,0,0,0,3.78-.1l1.14-.37a54.49,54.49,0,0,0,9.46-3.74,28.7,28.7,0,0,0,3.27-2.19l1.33-1a5.59,5.59,0,0,1,3.12-1.11,6.94,6.94,0,0,0,4.06-1.58,27.4,27.4,0,0,0,4.78-5.13c1.44-1.9,3.06-3.9,5.11-6.31a13.91,13.91,0,0,0,2.61-4.4,58.08,58.08,0,0,0,2.33-8.74l.2-1a106.68,106.68,0,0,0,2-13,9.12,9.12,0,0,0-2.67-7.76c-.23-.22-.44-.44-.66-.67s-.46-.48-.7-.71a46.19,46.19,0,0,1-9.54-12.52A22.68,22.68,0,0,1,64,171a37.26,37.26,0,0,1,.41-8.82c.58-3.23,1.23-6.38,1.72-8.77a14,14,0,0,1,.84-2.6,49.21,49.21,0,0,1,6.2-10.36,16.77,16.77,0,0,1,3-3,31.66,31.66,0,0,0,7.41-8.21,32.71,32.71,0,0,1,2.06-2.92,18.31,18.31,0,0,0,3.57-6.66,51.28,51.28,0,0,0,2.12-11.24c0-.83,0-1.67,0-2.56,0-.48,0-1,0-1.45a40.63,40.63,0,0,0-.76-9.4,9.75,9.75,0,0,0-4.44-6.35c-.86-.54-1.73-1-2.62-1.57l-2-1.12-2.2-1.27a5.52,5.52,0,0,1-2.73-6.4l.13-.62c.56-2.58,1.13-5.25,1.55-7.87a20.83,20.83,0,0,1,4.33-9.69c3-3.78,6-7.47,9.27-11.56a18.08,18.08,0,0,0,2.58-4.14,44.14,44.14,0,0,0,2.63-10.23l.15-.84a15.49,15.49,0,0,0-1.11-8.58,19,19,0,0,0-8.82-9.68,44.61,44.61,0,0,0-14.75-4.89A15.46,15.46,0,0,0,60,13.45,102.28,102.28,0,0,0,49.37,23.6a26,26,0,0,0-3.95,5.28c-1.12,2-2.14,4-3,5.9a59.47,59.47,0,0,0-4,10.62c-.64,2.58-1.4,5.3-2.26,8.1a113.1,113.1,0,0,0-3.6,14l-.08.45a7.42,7.42,0,0,0-.16,1.23l0,2.13c0,2.74-.06,5.58.05,8.34a25.24,25.24,0,0,0,.83,4.77,20.74,20.74,0,0,1,.26,10.45c-.42,1.63-.84,3.27-1.24,4.9a28.54,28.54,0,0,1-4.42,9.44,29.62,29.62,0,0,0-2.28,3.75c-.78,1.58-1.54,3.21-2.27,4.78-1.32,2.83-2.68,5.76-4.24,8.57a20.45,20.45,0,0,0-1.87,6.5c-.09.47-.17.93-.25,1.39a24.75,24.75,0,0,0-.06,8,60,60,0,0,0,3.59,12.48,49.11,49.11,0,0,1,2.9,10.53,14.23,14.23,0,0,1-1,8c-.4.91-.82,1.82-1.23,2.73-.89,2-1.81,4-2.62,6-.44,1.07-.78,2.19-1.14,3.38-.3,1-.61,2-1,3A83.53,83.53,0,0,0,12.94,200.18Z" />
        <text class="cls-2" transform="translate(41.24 111.7)">Min<tspan x="-3.21" y="19.76">Shin</tspan></text></g>
</svg>