<svg id="Layer_1" data-name="Layer 1" xmlns="http://www.w3.org/2000/svg" viewBox="0 0 138 206">
    <defs>
        <style>
            .cls-1 {
                fill: #b4b4b4;
            }

            .cls-2 {
                font-size: 16.47px;
                fill: #231f20;
                font-family: ArialMT, Arial;
            }
        </style>
    </defs>
    <g id="ichimuraMisako">
        <path class="shape" d="M51 3 80 0 130 54 138 158 79 206 4 188 0 72 51 3" />
        <path
            d="M75.2,195.65a7,7,0,0,1-3.44-1,13.19,13.19,0,0,1-2.69-1.95,20.56,20.56,0,0,0-9.9-5.36c-2.29-.52-4.57-1.16-6.77-1.78s-4.52-1.26-6.79-1.78a89.27,89.27,0,0,0-19.19-2.15c-3.72,0-6.78-.14-9.64-.37a17.42,17.42,0,0,1-3.91-.92l-.72-.23A5.66,5.66,0,0,1,8.27,176l-.08-.35a28.53,28.53,0,0,1-1-6A171.39,171.39,0,0,1,8.44,145c.37-3.21.68-6.5,1-9.67.33-3.49.67-7.1,1.1-10.64,1.27-10.64,1.24-21.18,1.09-31.07,0-2.27-.06-4.54-.08-6.81,0-3.3-.06-6.71-.13-10a8.56,8.56,0,0,1,2.46-6.33,39.44,39.44,0,0,0,4.9-6.48A224,224,0,0,1,38.6,36.43,129.74,129.74,0,0,0,48.69,22c1.4-2.26,3-4.46,4.46-6.58l1.07-1.52a14.27,14.27,0,0,1,1.6-1.83l.28-.29c2.81-2.9,5.72-4,8.89-3.23a5.34,5.34,0,0,1,.39-.44,5.51,5.51,0,0,1,7.78-.42,48.32,48.32,0,0,1,9.67,10.7,35,35,0,0,0,9.84,10.16c1,.73,2.07,1.5,3.06,2.24L97.37,32a44.75,44.75,0,0,1,12,13.18c1.29,2.14,2.7,4.32,4.34,6.67a31.59,31.59,0,0,0,7.4,7.51A6.32,6.32,0,0,1,124,65a260.76,260.76,0,0,0,1.26,26.25c1.43,17.42,2,35.94,1.77,60.05,0,3.85-1.29,5.55-5,6.73a11.09,11.09,0,0,0-1.79.84,38.09,38.09,0,0,0-10.45,7.66A50.23,50.23,0,0,1,98.21,176a54.22,54.22,0,0,0-16,14.73,23.19,23.19,0,0,1-2.43,2.9A6.39,6.39,0,0,1,75.2,195.65ZM63.11,11.08c-1.72,0-3.33.85-5,2.61l-.29.3a12.72,12.72,0,0,0-1.32,1.49L55.39,17c-1.48,2.09-3,4.25-4.37,6.45a133.62,133.62,0,0,1-10.3,14.72,221.48,221.48,0,0,0-19.6,27.16,42,42,0,0,1-5.25,6.93,5.85,5.85,0,0,0-1.73,4.41c.08,3.36.11,6.78.14,10.08,0,2.27,0,4.53.07,6.8.15,9.54.19,20.63-1.11,31.43-.42,3.51-.76,7.1-1.09,10.58-.3,3.19-.61,6.48-1,9.73A170.17,170.17,0,0,0,9.9,169.58a26.79,26.79,0,0,0,.95,5.43l.09.35a2.88,2.88,0,0,0,2,2.15l.74.23a15.46,15.46,0,0,0,3.29.81c2.79.22,5.79.34,9.43.36a91.54,91.54,0,0,1,19.79,2.22c2.33.53,4.66,1.18,6.92,1.81s4.42,1.24,6.64,1.75A23.15,23.15,0,0,1,71,190.75a11,11,0,0,0,2.15,1.54,3.53,3.53,0,0,0,4.68-.6,20.88,20.88,0,0,0,2.13-2.56A57.21,57.21,0,0,1,96.8,173.66a47.33,47.33,0,0,0,10.93-9,40.66,40.66,0,0,1,11.17-8.24,13.64,13.64,0,0,1,2.27-1.05c2.55-.82,3-1.47,3.06-4.13.21-24-.33-42.47-1.76-59.81a259.33,259.33,0,0,1-1.26-26.52,3.63,3.63,0,0,0-1.66-3.32,34.3,34.3,0,0,1-8-8.17c-1.67-2.4-3.13-4.64-4.44-6.83A42.23,42.23,0,0,0,95.75,34.22L94.09,33c-1-.73-2-1.49-3-2.2a37.67,37.67,0,0,1-10.6-11A45.56,45.56,0,0,0,71.36,9.76a2.75,2.75,0,0,0-4,.25c-.17.18-.32.37-.49.58s-.2.26-.32.4l-.6.73-.89-.3A6,6,0,0,0,63.11,11.08Z" />
        <text class="cls-2" transform="translate(33.2 109.6)">Ichimura <tspan x="7.78" y="19.76">Misako</tspan></text>
    </g>
</svg>