<svg id="Layer_1" data-name="Layer 1" xmlns="http://www.w3.org/2000/svg" viewBox="0 0 122 138">
    <defs>
        <style>
            .cls-1 {
                fill: #8b8b8b;
            }

            .cls-2 {
                font-size: 16.47px;
                fill: #231f20;
                font-family: ArialMT, Arial;
            }
        </style>
    </defs>
    <g id="sewon">
        <path class="shape" d="M34 17 0 68 11 127 51 138 122 76 101 0 34 17" />
        <path
            d="M36.24,131.82a21.94,21.94,0,0,1-4.65-.52,3.2,3.2,0,0,1-1.23-.58A56.66,56.66,0,0,1,20,122.11a24.3,24.3,0,0,1-4.9-7.87c-1.4-3.7-2.67-7-4.08-10.29A37.81,37.81,0,0,1,8.28,92.66c-.56-5.24-1-11.44.14-17.63a99.4,99.4,0,0,1,2.93-11.76,42.81,42.81,0,0,1,2.57-6l.78-1.58c.48-1,1-2,1.52-3,.79-1.5,1.54-2.92,2.15-4.4a28.55,28.55,0,0,1,8.75-11.54,91,91,0,0,0,7-6.48,40.47,40.47,0,0,1,6.63-5.41,89.33,89.33,0,0,1,18.56-8.94A153.09,153.09,0,0,1,77.14,11C82.75,9.76,88,8.81,93.28,8.08L94.15,8l1.91-.15.37,1.38q.46,1.71.93,3.39c.68,2.49,1.32,4.85,1.92,7.27,1.93,7.92,3.79,15.74,5.53,23.23.77,3.32,1.29,6,1.64,8.53a84.34,84.34,0,0,0,3.3,13.15l.16.53c.64,2,1.29,4.07,2,6.21.32,1,.64,2,1,3l.35,1.09-.87.75-.35.28c-.26.22-.56.46-.82.71l-1.66,1.56c-1.43,1.33-2.77,2.58-4,4a33.57,33.57,0,0,1-6.81,5.81,46.41,46.41,0,0,0-9.18,7.82c-.88,1-1.83,1.86-2.65,2.62l-2.62,2.42c-3,2.8-6.15,5.69-9.3,8.47a58.1,58.1,0,0,1-5.7,4.35A81.86,81.86,0,0,0,60,121.48a30.82,30.82,0,0,1-5.3,3.82c-2,1.22-4.16,2.34-6.21,3.43l-2,1.07a3.52,3.52,0,0,1-2.25.55,3.57,3.57,0,0,0-1.84.38l-.11,0A17.59,17.59,0,0,1,36.24,131.82ZM32.41,128a15.57,15.57,0,0,0,8.71-.43l.12,0a6.85,6.85,0,0,1,3.34-.57l.27-.14,2-1.09c2-1.07,4.1-2.17,6.06-3.35A27.53,27.53,0,0,0,57.67,119a85.74,85.74,0,0,1,9.62-7.43,55,55,0,0,0,5.38-4.08c3.11-2.76,6.23-5.64,9.24-8.43l2.63-2.42c.76-.71,1.64-1.53,2.42-2.39a49.34,49.34,0,0,1,9.87-8.41,29.67,29.67,0,0,0,6.11-5.22c1.33-1.49,2.8-2.86,4.22-4.18l1.63-1.53a5.48,5.48,0,0,1,.44-.4q-.3-.94-.6-1.86c-.7-2.15-1.36-4.18-2-6.26l-.16-.53a86.2,86.2,0,0,1-3.42-13.69c-.33-2.4-.83-5-1.58-8.22-1.74-7.48-3.59-15.29-5.53-23.19-.58-2.38-1.22-4.71-1.89-7.18-.19-.67-.37-1.34-.55-2-5.09.71-10.2,1.63-15.64,2.81a148,148,0,0,0-17.38,4.82,85.27,85.27,0,0,0-17.85,8.6,36.44,36.44,0,0,0-6.05,5,97,97,0,0,1-7.31,6.72A25.11,25.11,0,0,0,21.54,49.6c-.67,1.62-1.49,3.17-2.28,4.68-.49.94-1,1.92-1.47,2.89-.25.54-.52,1.08-.79,1.62a39.84,39.84,0,0,0-2.37,5.5A94.47,94.47,0,0,0,11.8,75.64c-1.05,5.76-.64,11.65-.11,16.66a34.79,34.79,0,0,0,2.52,10.29c1.44,3.33,2.73,6.69,4.14,10.43a21,21,0,0,0,4.21,6.77,53.5,53.5,0,0,0,9.68,8.06l.06,0Z" />
        <text class="cls-2" transform="translate(39.91 69.89)">sewon</text></g>
</svg>