<svg id="Layer_1" data-name="Layer 1" xmlns="http://www.w3.org/2000/svg" viewBox="0 0 212 178">
    <defs>
        <style>
            .cls-1 {
                fill: #747474;
            }

            .cls-2 {
                font-size: 16.47px;
                fill: #231f20;
                font-family: ArialMT, Arial;
            }

            .cls-3 {
                letter-spacing: -0.02em;
            }

            .cls-4 {
                letter-spacing: -0.07em;
            }
        </style>
    </defs>
    <g id="seungwookYang">
        <path class="shape" d="M0 21 0 178 212 171 212 25 181 6 45 0 0 21" />
        <path
            d="M196.17,32.46c0-1,.05-1.77.1-2.56.09-1.66.59-2.59,1.37-2.56.61,0,1.34,1,1.35,2.6a83,83,0,0,1-1.19,12.88c-.58,3.92-1.28,7.8-1.86,11.72a30.21,30.21,0,0,0-.35,4.38c0,5.74,0,11.48.08,17.23A33.86,33.86,0,0,0,196.2,82,146.72,146.72,0,0,1,198,97.72c.71,8.21,1.45,16.41,2.15,24.62.41,5,.75,9.94,1.15,14.9.24,3,.48,6,.83,9A46.43,46.43,0,0,1,201,162c-.37,1.69-1.14,2.51-2.33,2.52-2.85,0-5.69.08-8.45-1.18a4.15,4.15,0,0,0-1.46-.31,242.22,242.22,0,0,0-25.41-.86c-3,.07-6,.35-9,.5-3.45.17-6.9.18-10.33.46-9.18.72-18.37,1-27.56.86-2.51-.05-5-.21-7.54-.38-4.34-.29-8.6.83-12.89,1.58-2.93.51-5.87.84-8.8,1.3-2,.31-4,.66-6,1.1-4.08.88-8.07.16-12-1.21A21.06,21.06,0,0,0,62,165.11c-3.45,0-6.9.12-10.34,0-5.08-.24-10.16-.72-15.24-1a56.9,56.9,0,0,0-8.36,0c-2.55.25-5.08,1.07-7.62,1.57-1.78.36-3.57.68-5.36.88a7.45,7.45,0,0,0-3.69.85c-1.08.7-1.79-.13-1.88-1.9,0-.74,0-1.48,0-2.22q0-15.25-.06-30.52a153.66,153.66,0,0,0-2.13-23.57,32.1,32.1,0,0,1-.34-4.4c-.15-6.14-.23-12.29-.38-18.44-.06-2.7-.33-5.39-.29-8.09.06-5.41.27-10.81.42-16.22q.21-7.5.41-15a41.4,41.4,0,0,1,3.17-15.07,29,29,0,0,1,2.81-4.76,4.38,4.38,0,0,1,2.94-2c5.09-1,10.18-1.95,15.26-3,3-.6,5.93-1.47,8.91-1.93A70.6,70.6,0,0,1,50,19.39a55.62,55.62,0,0,0,12.39-1.72,8.78,8.78,0,0,1,1.95-.3c4.21,0,8.45-.41,12.63.15,7.27,1,14.54.56,21.8.92,3.33.17,6.64.85,10,1.2,2.68.28,5.35.54,8,.6,4.54.1,9.08,0,13.62,0a95.48,95.48,0,0,1,23.34,2.86c4.46,1.14,9,1.75,13.41,3.2,5.05,1.66,10.15,2.19,15.26,2.94,4,.58,8,1.76,12,2.68C194.93,32.08,195.45,32.26,196.17,32.46ZM196,36.77a6.11,6.11,0,0,0-1.13-.68A80,80,0,0,0,181,33c-3.81-.41-7.64-.61-11.39-1.91a65.38,65.38,0,0,0-6.41-1.94c-4.05-1-8.12-1.61-12.16-2.65a83,83,0,0,0-17.46-2.23c-5.91-.23-11.82-.06-17.73-.16a42.43,42.43,0,0,1-7.2-.55,81.57,81.57,0,0,0-15.87-1.33,67.17,67.17,0,0,1-9.52-.18,108.3,108.3,0,0,0-18.52-.78,9.37,9.37,0,0,0-1.79.28,56.31,56.31,0,0,1-13.37,1.74,46,46,0,0,0-11.1,1.29c-3.24.79-6.49,1.39-9.73,2.05-3.9.8-7.79,1.65-11.69,2.33-1.61.28-2.74,1.54-3.66,3.33A31.34,31.34,0,0,0,9.9,45.38C9.47,55,9.14,64.71,9,74.39c-.1,6.13.16,12.29.3,18.43.09,4.26.24,8.52.38,12.78,0,1,.16,2,.29,2.91.5,3.86,1.21,7.67,1.51,11.56.39,5,.58,10.14.64,15.21.11,8.21,0,16.42,0,24.62v3c2.63-.36,5-.58,7.39-1s4.73-1.39,7.11-1.63a64.06,64.06,0,0,1,9.19-.11c8.85.38,17.7,1.47,26.57,1.08a18.94,18.94,0,0,1,7.3,1.27,21,21,0,0,0,10.57,1.23c2-.32,3.9-.77,5.85-1.07,3-.46,6-.68,9-1.3,5.48-1.14,11-2,16.5-1.6a44.41,44.41,0,0,0,4.75.22c8-.19,16-.43,23.95-.65,3.34-.09,6.68-.11,10-.28,4.1-.21,8.19-.7,12.29-.77a204.68,204.68,0,0,1,23.62.61,47.25,47.25,0,0,1,5.83,1,15.81,15.81,0,0,0,6.38.49,37.27,37.27,0,0,0,.93-14.47c-.32-2.49-.49-5-.69-7.55-.42-5.21-.78-10.43-1.22-15.64-.68-8-1.42-16.09-2.1-24.14-.45-5.28-.76-10.58-1.73-15.76a47.17,47.17,0,0,1-.62-7.29c-.11-4.34,0-8.7-.1-13a70,70,0,0,1,1.24-14.08C194.81,44.63,195.36,40.79,196,36.77Z" />
        <text class="cls-2" transform="translate(32.33 95.77)">Seungwook<tspan class="cls-3" x="86.08" y="0"> </tspan>
            <tspan class="cls-4" x="90.36" y="0">Y</tspan>
            <tspan x="100.12" y="0">ang</tspan>
        </text></g>
</svg>