<svg id="Layer_1" data-name="Layer 1" xmlns="http://www.w3.org/2000/svg" viewBox="0 0 185 111">
    <defs>
        <style>
            .cls-1 {
                fill: #868686;
            }

            .cls-2 {
                font-size: 16.47px;
                fill: #231f20;
                font-family: ArialMT, Arial;
            }
        </style>
    </defs>
    <g id="blblbg">
        <path class="shape" d="M80 0 178 15 185 58 178 105 139 111 40 106 0 86 14 20 80 0" />
        <path
            d="M137.76,104.54a9.12,9.12,0,0,1-4.27-1.34c-2.12-1.19-4.17-2.6-6.14-4-4.49-3.09-8.72-6-13.68-6.42-3.59-.3-7.16.78-10.94,1.93-4.09,1.24-8.31,2.52-12.74,2-3.64-.43-6.95-2-10.16-3.58C76,91.31,72.35,89.56,68.55,90s-6.86,2.86-10.18,5.44c-.91.72-1.86,1.46-2.82,2.14-4.9,3.52-11.92,5.87-16.92,1.89-2.06-1.64-3.15-3.91-4.2-6.1-.23-.48-.45-1-.69-1.43-2.41-4.71-5.93-8.08-9.93-9.49-4.43-1.56-9.51-.36-12.08,2.86l-1.55,2L8.91,85.11c-3.72-6.29-2.93-14.94,2.27-25,.63-1.21,1.29-2.42,1.94-3.64,3.17-5.84,6.44-11.89,6.35-18.27-.06-4.73.09-9.55,2.6-12A5.25,5.25,0,0,1,26,24.65a8.92,8.92,0,0,1,4.83,2L41.7,34.41c1.71,1.21,3.52,2.37,5.13,2.06,2.23-.44,2.77-2.86,3.47-6.76.47-2.58.94-5.24,2.3-7.43,3.2-5.15,10.5-5.62,15.43-3.1,3.76,1.92,6.56,5.18,8.85,8.32A48,48,0,0,0,87,11.43l.84-2.2,1.83,1.47c3.17,2.52,6.76,5.38,10.79,6.5,3.33.93,8,.51,10.3-2.61l.79-1.06,1.22.48a24.33,24.33,0,0,1,7,4.89c2.43,2.15,4.72,4.18,7.52,4.57,2.11.29,4.31-.38,6.63-1.1l.7-.21a79.72,79.72,0,0,1,28.68-3.26c2.88.2,5.85.66,8.05,2.7,1.91,1.77,2.69,4.29,3.27,6.52a116,116,0,0,1-.79,61.45c-.32,1.12-1,3.45-3.08,4.38-1.82.82-3.72.12-4.86-.3l-20.18-7.43a80.7,80.7,0,0,1-2.24,12.44c-.55,2.09-1.5,4.62-3.94,5.56A5,5,0,0,1,137.76,104.54Zm-25.31-15.2c.5,0,1,0,1.51.06,5.86.49,10.68,3.81,15.33,7,1.92,1.32,3.89,2.68,5.87,3.79.93.52,2.25,1.16,3.16.82s1.53-2,1.85-3.24a77,77,0,0,0,2.33-14.07l.16-2.28,24.44,9a3.73,3.73,0,0,0,2.27.39c.63-.28,1-1.63,1.19-2.2A112.58,112.58,0,0,0,171.32,29c-.48-1.84-1-3.73-2.28-4.87-1.42-1.31-3.7-1.64-6-1.79a76,76,0,0,0-27.44,3.11l-.69.21c-2.58.8-5.25,1.62-8.11,1.22-3.83-.53-6.63-3-9.33-5.41a26.8,26.8,0,0,0-4.91-3.75c-3.44,3.48-8.89,4-13.06,2.8a30.1,30.1,0,0,1-10.2-5.71A51.54,51.54,0,0,1,75.82,33.25l-2.24-2.59.82-.74c-2.16-3-4.65-6-7.93-7.68-3.59-1.84-8.85-1.53-10.95,1.85-1,1.63-1.43,4-1.84,6.22-.72,4-1.54,8.62-6.2,9.52-2.94.58-5.55-1-7.77-2.62L28.83,29.49a6.07,6.07,0,0,0-2.93-1.41,1.8,1.8,0,0,0-1.42.5c-1.68,1.67-1.61,6.8-1.57,9.55.1,7.27-3.39,13.72-6.77,20-.65,1.19-1.29,2.39-1.91,3.58C11.32,67.3,8.58,75,10.9,81.32A14.82,14.82,0,0,1,25,79.21c4.83,1.71,9,5.67,11.83,11.17.25.49.5,1,.74,1.51.92,1.93,1.8,3.75,3.24,4.9,3.5,2.79,9.07.67,12.78-2,.9-.65,1.82-1.37,2.72-2.06,3.54-2.76,7.21-5.61,11.88-6.15s9.06,1.5,13.18,3.49c3.08,1.49,6,2.9,9.06,3.26,3.72.44,7.42-.69,11.35-1.88C105.19,90.42,108.75,89.34,112.45,89.34Z" />
        <text class="cls-2" transform="translate(75.21 63.72)">blblbg</text></g>
</svg>