<svg id="Layer_1" data-name="Layer 1" xmlns="http://www.w3.org/2000/svg" viewBox="0 0 264 161">
    <defs>
        <style>
            .cls-1 {
                fill: #9d9d9d;
            }

            .cls-2 {
                font-size: 16.47px;
                fill: #231f20;
                font-family: ArialMT, Arial;
            }

            .cls-3 {
                letter-spacing: -0.02em;
            }

            .cls-4 {
                letter-spacing: -0.09em;
            }
        </style>
    </defs>
    <g id="hongSeoYeon">
        <path class="shape" d="M0 6 3 96 239 161 264 86 185 26 72 0 0 6" />
        <path
            d="M39.21,86.2c-1.13.49-2.17.93-3.2,1.4a27.54,27.54,0,0,1-11.93,2.87,11.19,11.19,0,0,0-7,2.18c-2.12,1.53-4.28-.54-4.77-3.93a136,136,0,0,1-1-15.89,74.63,74.63,0,0,0-2-14.63,72.57,72.57,0,0,1-2-16.39c0-5.31.4-10.63.61-15.94.1-2.61.19-5.23.29-7.84,0-.82,0-1.65.12-2.44.33-2.51.83-2.89,2.49-2.77,2.66.19,5.33.18,8,.22,1.8,0,3.59,0,5.58,0,.54-1.21,1.54-1.22,2.61-1.26A16.63,16.63,0,0,0,31.5,11a24.09,24.09,0,0,1,9.93-.85,165.19,165.19,0,0,0,24.87.27c4.91-.26,9.81-.69,14.72-.67A52.07,52.07,0,0,1,102.21,14a36.09,36.09,0,0,0,16.34,3.13,83.86,83.86,0,0,1,21.35,2.24c5.12,1.1,9.81,3.9,14.51,6.79s9.48,6,14.42,8.15c1.83.8,3.74,1.18,5.6,1.82a27.19,27.19,0,0,1,4.11,1.66c5.51,3,11,6,16.49,9,3.64,2,7.27,4.09,10.89,6.15,3.22,1.83,6.46,3.59,9.65,5.55,1.51.92,2.89,2.3,4.37,3.35,4.64,3.28,9.35,6.36,13.94,9.8A64.79,64.79,0,0,1,241,78.14a42,42,0,0,0,8.53,6.75,7.84,7.84,0,0,1,1.31,1,10.39,10.39,0,0,0,4.83,2.9,3,3,0,0,1,1.09.53c1,.66,1.27,1.49,1,3-.74,3.43-1.38,6.93-2.88,9.87a35.93,35.93,0,0,0-3,8.94A142.21,142.21,0,0,1,246.47,129a96.71,96.71,0,0,0-3.14,11.33,88.45,88.45,0,0,1-5.06,15.11c-1,2.43-1.71,2.77-3.36,1.33-2.69-2.35-5.36-4.75-7.93-7.36-3.43-3.49-6.69-7.36-10.16-10.75a26.76,26.76,0,0,0-6.16-4.52c-4.69-2.47-9.44-4.72-14.22-6.8a32.41,32.41,0,0,0-6.91-2,24.86,24.86,0,0,1-10.81-5.47,6.52,6.52,0,0,0-1-.78c-6.41-3.33-12.6-7.56-19.15-10.27-2.74-1.13-5.42-2.6-8.11-4a17.45,17.45,0,0,0-6.27-1.72,20.1,20.1,0,0,1-6.24-1.89c-6.33-2.87-12.66-5.75-19.06-8.22-3.53-1.37-7.2-1.92-10.8-2.87-3-.79-5.89-1.82-8.86-2.43a49.94,49.94,0,0,0-15.53-.21A24.54,24.54,0,0,1,72.5,86.12a14.26,14.26,0,0,0-8-.62,52.46,52.46,0,0,1-14.37,1.3,13,13,0,0,0-7.39,1.79,5.22,5.22,0,0,0-1.6,1.52c-.52.74-1,.9-1.62.47a2.13,2.13,0,0,1-.66-2C39,87.82,39.08,87.13,39.21,86.2ZM11,17.14c-.08,2.59-.12,5.12-.24,7.64-.19,4.09-.44,8.16-.66,12.25A67,67,0,0,0,11.9,56.86c1.72,6.89,2,14,2.33,21.25.13,3.18.41,6.35.7,9.51.14,1.58.5,1.9,1.42,1.21a12.25,12.25,0,0,1,7.81-2.28,25.9,25.9,0,0,0,11-2.65c.84-.38,1.68-.72,2.51-1.13A14.56,14.56,0,0,1,48.31,82a19.92,19.92,0,0,0,9.09.75c2.22-.45,4.46-.63,6.68-1.1a16.83,16.83,0,0,1,8.94.62c2.88,1,5.75,1.88,8.75,1.53s6.21-.39,9.32-.52a37.69,37.69,0,0,1,12.7,1.57c2.25.68,4.49,1.48,6.76,1.94a80.82,80.82,0,0,1,15.54,4.89c4.52,1.94,9,4.2,13.48,6.23a12.47,12.47,0,0,0,3.84,1.16,32.33,32.33,0,0,1,11.18,3.58c7.89,3.95,15.77,7.93,23.5,12.52a20,20,0,0,1,2.08,1.45,22.91,22.91,0,0,0,8.28,4.52,55.42,55.42,0,0,1,8.21,2.23c4.59,1.89,9.09,4.22,13.63,6.35a36.1,36.1,0,0,1,11,8.61c3.7,4,7.45,8,11.23,11.9,1.1,1.14,2.22,2.35,3.65,2.68a6.94,6.94,0,0,0,.42-.8c1.4-4,3.1-7.71,4-12.08a82.28,82.28,0,0,1,3.68-13.4A99,99,0,0,0,249,111a51.86,51.86,0,0,1,4-12,18.74,18.74,0,0,0,1.63-6c-2.13-1.56-4.12-3.26-6.23-4.52a49.84,49.84,0,0,1-9.9-8.09A52.12,52.12,0,0,0,232.34,75c-4.56-3.35-9.19-6.45-13.79-9.7-1.52-1.09-3-2.52-4.52-3.43-4.8-2.77-9.64-5.33-14.46-8-4.15-2.32-8.28-4.69-12.42-7.05-.3-.18-.58-.48-.89-.63-3.93-2-7.81-4.26-11.82-5.86-3.8-1.51-7.69-2.51-11.36-4.71-3.86-2.31-7.7-4.69-11.57-7-4.12-2.41-8.24-4.72-12.72-5.41S129.63,21,125,21.1q-3.76.06-7.53,0c-4.88,0-9.75-.52-14.41-2.72a50.63,50.63,0,0,0-17.89-4.48c-5.11-.4-10.25.1-15.38.31-9.49.41-19,.87-28.48-.14a21.74,21.74,0,0,0-9.12.76,29.65,29.65,0,0,1-4.55.86c-.6.1-1.16.09-1.61.9a1.44,1.44,0,0,1-1.94.73,7.93,7.93,0,0,0-2.42-.44c-3.33,0-6.66,0-10,0A2.36,2.36,0,0,0,11,17.14Z" />
        <text class="cls-2" transform="translate(77.08 52.34) rotate(17.51)">Hong Seo<tspan class="cls-3" x="73.26"
                y="0"> </tspan>
            <tspan class="cls-4" x="77.54" y="0">Y</tspan>
            <tspan x="87.01" y="0">eon</tspan>
        </text></g>
</svg>