<svg xmlns="http://www.w3.org/2000/svg" viewBox="0 0 97.49 101.73"><g id="Layer_2" data-name="Layer 2"><g id="Layer_1-2" data-name="Layer 1"><path d="M32.82,53.07c0-.06,0-.13-.1-.16a35.07,35.07,0,0,0-4.32-3.56,16.76,16.76,0,0,1-3.28-2.66,42.07,42.07,0,0,0-5-4,55,55,0,0,0-7.24-4.49,22.73,22.73,0,0,1-3.44-2.23A18.07,18.07,0,0,0,5,33.45c-.81-.32-1.63-.62-2.41-1a12.82,12.82,0,0,1-2-1.27,1.64,1.64,0,0,1-.32-2.25c1.14-1.68,2.28-3.36,3.48-5,.6-.82,1.34-1.54,2-2.32A28.72,28.72,0,0,0,9,16.73c.28-.51.56-1,.88-1.51a1.6,1.6,0,0,1,2.59-.38c.4.33.86.59,1.27.9,1,.77,2,1.51,3,2.33s2,1.88,3,2.76a23,23,0,0,0,2.66,2A24.37,24.37,0,0,1,27,26.42,19.49,19.49,0,0,0,31,29.53a21.46,21.46,0,0,1,4.53,3.58,15.47,15.47,0,0,0,4.88,3.25c0-.16-.06-.29-.1-.42a22.88,22.88,0,0,0-2.61-6.23c-.23-.35-.43-.71-.65-1.06a40.89,40.89,0,0,1-4.59-10,87.62,87.62,0,0,0-3.5-8.72,1.46,1.46,0,0,0-.78-.82,1.79,1.79,0,0,1-.64-2.44,2.22,2.22,0,0,1,1-.94c.37-.18.75-.35,1.13-.5a23.81,23.81,0,0,0,3.95-2,17.17,17.17,0,0,1,5.92-2.17A21.35,21.35,0,0,0,42,.34a1.64,1.64,0,0,1,2.31,1.27c.19.81.28,1.64.48,2.44a39.79,39.79,0,0,0,2.43,6.79A80.13,80.13,0,0,1,51,20.26c.69,2.2,1.41,4.39,2.11,6.58a44.2,44.2,0,0,0,2.82,6.36,3.65,3.65,0,0,0,.17-.41,43,43,0,0,1,3.6-8.46,51.54,51.54,0,0,0,3.76-8.46c.75-2.13,1.65-4.21,2.48-6.31a20.06,20.06,0,0,1,3-5.15,6,6,0,0,0,1-1.74c.2-.54.45-1.07.66-1.61a1.58,1.58,0,0,1,2.19-.9,4.4,4.4,0,0,1,1,.7c2.28,2,2,1.75,4.55,2.52l1.12.35a8,8,0,0,1,4,2.87,9.65,9.65,0,0,0,1,1.05,3.8,3.8,0,0,0,1.41.87,1.38,1.38,0,0,1,.59,2.24,20.87,20.87,0,0,0-1.65,2.1c-2.22,3.44-4.62,6.74-7.12,10a15.48,15.48,0,0,0-2,3.42,50.67,50.67,0,0,1-3.16,5.79C71.62,33.5,70.85,35,70,36.47c-.1.18-.17.37-.3.66a2.1,2.1,0,0,0,.57-.13,21.78,21.78,0,0,0,2.58-1.35,24.49,24.49,0,0,1,4.92-2.5c1.55-.59,3-1.31,4.54-2a25.07,25.07,0,0,1,5.24-1.9,15.24,15.24,0,0,0,1.94-.65c1-.37,1.92-.77,2.88-1.16.52-.2,1-.42,1.57-.59a5.18,5.18,0,0,1,1-.23,1.41,1.41,0,0,1,1.57,1.46c0,.91.1,1.83.09,2.74a46.46,46.46,0,0,0,.5,6.45,36.42,36.42,0,0,1,.32,5.9,1.46,1.46,0,0,1-1.23,1.57,10.79,10.79,0,0,1-2,.2,14,14,0,0,0-3.81.51c-2.43.76-4.86,1.52-7.22,2.5a22.63,22.63,0,0,1-5.65,1.65c-1,.13-2.1.21-3.15.33a7.92,7.92,0,0,0-1.34.26A34,34,0,0,0,77,52.53,19.31,19.31,0,0,1,81.23,55a21,21,0,0,1,2,1.8,17.25,17.25,0,0,0,3.24,2.61,28.22,28.22,0,0,1,4,2.9A15.46,15.46,0,0,1,92.86,65a1.64,1.64,0,0,1-.61,2.43,4.62,4.62,0,0,0-1,.77,35.6,35.6,0,0,0-7.46,8.54c-1,1.53-2.06,3.06-3.08,4.6a6.33,6.33,0,0,0-.68,1.25c-.5,1.37-1.39,1.63-2.74,1.32A5.1,5.1,0,0,1,75,82.5c-.71-.69-1.39-1.43-2-2.18a16.63,16.63,0,0,0-3.12-2.75,13.7,13.7,0,0,1-3-2.53,19.46,19.46,0,0,1-1.32-1.81,22.54,22.54,0,0,0-4.15-4.78c-.4-.36-.79-.74-1.19-1.11a3.17,3.17,0,0,0-.27-.2,5,5,0,0,0,.1,1.71c.56,3.53,1.14,7.05,1.67,10.58.17,1.1.18,2.23.29,3.35.18,1.83.35,3.67.57,5.51s.38,3.62.44,5.45a30.34,30.34,0,0,0,.51,5.2,5.6,5.6,0,0,1,.11,1.36A1.42,1.42,0,0,1,62,101.73a4.63,4.63,0,0,1-1.33-.27,14.09,14.09,0,0,1-1.53-.7,15,15,0,0,0-5.41-1.52,29.7,29.7,0,0,0-3-.13c-2.45,0-4.91,0-7.36,0a6,6,0,0,0-.73.08,1.42,1.42,0,0,1-1.81-1.44c0-1.84,0-3.69.07-5.54s.17-3.4.18-5.1c0-5.78,0-11.55,0-17.32,0-1,.14-1.91.18-2.86,0-.66,0-1.32,0-2-.07,0-.14,0-.17.08a20.77,20.77,0,0,1-2.86,3.28,17.85,17.85,0,0,0-3.16,4.22,28.23,28.23,0,0,1-4.5,6.09,17.25,17.25,0,0,0-2.81,3.87,38.35,38.35,0,0,1-4.13,6.14c-.74.89-1.42,1.84-2.09,2.79a14,14,0,0,0-1,1.71,1.45,1.45,0,0,1-1.38,1A1.53,1.53,0,0,1,17.85,93a13.11,13.11,0,0,1-.42-1.75c-.49-2.82-1.22-5.59-1.88-8.37a61.66,61.66,0,0,1-1.22-8.12,20.58,20.58,0,0,0-1.16-5.53,19.84,19.84,0,0,1-.61-1.89,1.42,1.42,0,0,1,1-1.93,8,8,0,0,0,3.06-1.6,17.47,17.47,0,0,1,5.81-3,4.08,4.08,0,0,0,2-1.26,22.67,22.67,0,0,1,6-4.74c.43-.25.86-.5,1.28-.76A2.74,2.74,0,0,0,32.82,53.07Zm10.66,8.75c.71.08,1.34.17,2,.23a10.36,10.36,0,0,0,3.88-.26A26.11,26.11,0,0,1,55,60.72c1-.06,1.94-.14,2.92-.18a.94.94,0,0,0,.74-.35c1.49-1.75,3-3.49,4.36-5.36A15.48,15.48,0,0,1,66.66,51s.08-.09.15-.16a1.36,1.36,0,0,1,.24-1.22,1,1,0,0,0,.23-1c-.12-.69-.26-1.38-.35-2.08-.27-2-.51-4.07-.75-6.11a.92.92,0,0,0-.54-.75,15.53,15.53,0,0,0-5.46-1.79,6.28,6.28,0,0,1-2.59-.81l-1.84-1.18a1.78,1.78,0,0,1-1.36.17,6.62,6.62,0,0,0-4.79.32c-1.77.8-3.57,1.55-5.36,2.31a4.45,4.45,0,0,1-2.46.54,5.88,5.88,0,0,0-1,2A9.5,9.5,0,0,1,40,43.69c-.36.77-.73,1.53-1.11,2.29a37.11,37.11,0,0,0-2.33,5.83.7.7,0,0,0,.11.79,1.06,1.06,0,0,1,.27.67c-.07.55.27.79.61,1.06s.45.37.67.56c1.6,1.39,3.22,2.75,4.78,4.18A2,2,0,0,1,43.48,61.82Zm.19,34.5h1.57c2.76,0,5.52,0,8.28.09a15.84,15.84,0,0,1,5,1c.62.22,1.22.48,1.9.75,0-.36-.05-.67-.07-1-.09-1.45-.18-2.9-.29-4.35Q60,91,59.76,89c-.16-1.61-.37-3.21-.54-4.82-.22-2.15-.37-4.3-.64-6.44-.3-2.32-.72-4.63-1.08-7a29.46,29.46,0,0,1-.41-3c-.06-1.28,0-2.57,0-3.86,0-.2,0-.39,0-.64L56,63.46a22.83,22.83,0,0,0-5.26.85,12.14,12.14,0,0,1-3.92.58l-2.62-.09a.53.53,0,0,0,0,.15c-.07,1.35-.17,2.69-.18,4,0,4.38,0,8.76,0,13.14,0,3.86,0,7.72-.28,11.58C43.62,94.55,43.67,95.4,43.67,96.32Zm16.64-33.1c.1.13.14.2.19.27a21.32,21.32,0,0,0,2.74,2.88,23.58,23.58,0,0,1,4.55,5.26,10.56,10.56,0,0,0,2.79,3.05l1.07.76a17.31,17.31,0,0,1,3.29,2.93q.91,1,1.86,2c.24.24.54.42.81.64l3.61-5.39c.46-.69.9-1.4,1.36-2.08a59.5,59.5,0,0,1,3.93-4.74,13.47,13.47,0,0,1,2.82-2.62,5.89,5.89,0,0,0,.53-.46,15.4,15.4,0,0,0-1.34-1.34c-1-.81-2.1-1.62-3.21-2.35a21.2,21.2,0,0,1-4.16-3.33,14.13,14.13,0,0,0-4.47-3.23,33.77,33.77,0,0,1-4.07-2.27c-.85-.55-1.74-1-2.59-1.54l-.2.15c-.55.51-1.06,1.06-1.64,1.52a12.07,12.07,0,0,0-2.05,2l-4.47,5.59a.64.64,0,0,0-.15.61,1.36,1.36,0,0,1-.75,1.5A4.37,4.37,0,0,1,60.31,63.22ZM38.77,38.83l-.09-.1-.55-.3a17.66,17.66,0,0,1-4.64-3.32,18.14,18.14,0,0,0-4-3.21A21.58,21.58,0,0,1,25,28.37a20.78,20.78,0,0,0-4.14-3.27,17.86,17.86,0,0,1-3-2.17c-1.06-1-2.13-2-3.2-2.95a18.27,18.27,0,0,0-3-2.22c-.16.27-.3.49-.43.73a28.81,28.81,0,0,1-4.24,6,36.85,36.85,0,0,0-3.56,4.94,2,2,0,0,0-.11.29c.72.31,1.41.63,2.12.9a23.53,23.53,0,0,1,6,3.28,20.7,20.7,0,0,0,3,1.9,66.2,66.2,0,0,1,8.89,5.71,37.92,37.92,0,0,1,4.21,3.6,11.9,11.9,0,0,0,1.82,1.5,27.43,27.43,0,0,1,4.26,3.33c.16.15.33.28.53.45.14-.4.26-.71.36-1a51.89,51.89,0,0,1,2.74-6.2,9.6,9.6,0,0,0,.72-1.91A7.66,7.66,0,0,1,38.77,38.83ZM34.62,55.45c-.83.53-1.63,1-2.44,1.54a21,21,0,0,0-5.43,4.22,7.28,7.28,0,0,1-3.57,2.27,13.5,13.5,0,0,0-3.71,1.73,17.46,17.46,0,0,1-3.89,2.47c.07.21.11.36.17.51a22.69,22.69,0,0,1,1.34,6.19,62.33,62.33,0,0,0,1.09,7.44c.42,1.86.9,3.71,1.34,5.56.13.51.22,1,.34,1.64l.49-.6c.44-.58.86-1.17,1.33-1.73a31.5,31.5,0,0,0,3.67-5.47,21.71,21.71,0,0,1,3.57-4.84,21.29,21.29,0,0,0,3.42-4.58,25,25,0,0,1,4.86-6.34A14.44,14.44,0,0,0,40,61.53c.17-.33.28-.68.43-1.05ZM83.07,10.33c-.75-.83-1.49-1.61-2.19-2.43a4.67,4.67,0,0,0-2-1.38c-.76-.26-1.53-.51-2.31-.72a8.54,8.54,0,0,1-3.68-2c-.08-.08-.19-.13-.35-.25a9.39,9.39,0,0,1-1.8,3.1,16,16,0,0,0-2.17,3.9c-.32.78-.61,1.58-.92,2.37-.63,1.6-1.34,3.18-1.9,4.8a39.18,39.18,0,0,1-3.12,7,45.85,45.85,0,0,0-3.69,8.29c-.12.35-.22.7-.33,1a8.68,8.68,0,0,0,1.15.81A4.88,4.88,0,0,0,61,35.2a16.58,16.58,0,0,1,5.08,1.58l.6.28a1.31,1.31,0,0,0,.12-.19,55.57,55.57,0,0,1,3.38-6.44A55.47,55.47,0,0,0,73,25.25a21,21,0,0,1,2.59-4.38c1.53-2.05,3.06-4.09,4.55-6.16C81.18,13.26,82.13,11.75,83.07,10.33ZM52.66,33c-.12-.25-.19-.38-.24-.51-.57-1.31-1.21-2.6-1.67-4-1-3-2-6-3-9a39.41,39.41,0,0,0-1.94-5A68.83,68.83,0,0,1,42.7,6.67c-.35-1.06-.61-2.14-.93-3.25l-.4.05c-.49.11-1,.24-1.46.32a14.42,14.42,0,0,0-5.36,2.05c-.8.51-1.69.88-2.53,1.33-.19.1-.49.24-.49.39,0,.41-.33.76-.11,1.24,1,2.26,2,4.53,2.87,6.82.7,1.78,1.25,3.61,1.9,5.4a36.3,36.3,0,0,0,3.61,6.87,23.26,23.26,0,0,1,2.73,6c.2.74.48,1.45.73,2.2l.5-.21c1.24-.53,2.47-1.09,3.71-1.6C49.1,33.59,50.7,32.82,52.66,33Zm16.27,7.22c.58,2.64.52,5.33,1.12,8,.39-.14.72-.24,1-.37a10.84,10.84,0,0,1,3.56-.8,22.06,22.06,0,0,0,7-1.51c2-.76,4-1.45,5.95-2.17a19,19,0,0,1,5.87-1.25c.37,0,.74,0,1.18-.06,0-.28,0-.52,0-.77-.08-1.09-.13-2.19-.26-3.28a49,49,0,0,1-.56-7.45,6.78,6.78,0,0,0,0-.68c-.93.36-1.79.66-2.62,1a15.39,15.39,0,0,1-3,1.08,20,20,0,0,0-4.55,1.65c-1.56.76-3.14,1.49-4.76,2.12A20.71,20.71,0,0,0,74.42,38a12.42,12.42,0,0,1-4,1.87C70,40,69.48,40.1,68.93,40.22Z"/></g></g></svg>