<svg xmlns="http://www.w3.org/2000/svg" viewBox="0 0 15.25 12.43"><g id="Layer_2" data-name="Layer 2"><g id="Layer_1-2" data-name="Layer 1"><path d="M5.25,4.35c0-.36-.07-.68-.08-1,0-.68,0-1.36,0-2A1.37,1.37,0,0,1,6.07.07,1.25,1.25,0,0,1,7.7,1.49a10.41,10.41,0,0,0,.14,2.78c.38,0,.72,0,1.06.08,1.13.12,2.25.27,3.38.39.55,0,1.1.09,1.64.11A1.31,1.31,0,0,1,15.24,6a1.25,1.25,0,0,1-1,1.39,1.61,1.61,0,0,1-.61.08c-.79-.07-1.58-.18-2.37-.27L8.62,6.88a3.56,3.56,0,0,0-.43,0c.07.55.13,1.08.22,1.59a12.28,12.28,0,0,0,.4,2.06,1.32,1.32,0,0,1-.64,1.75,1.37,1.37,0,0,1-1.86-.8A7.12,7.12,0,0,1,6,10.11c-.14-.93-.26-1.88-.39-2.81,0-.13-.06-.25-.1-.41A25,25,0,0,0,2.93,7a6.42,6.42,0,0,1-1.44.21l-.29,0A1.29,1.29,0,0,1,0,5.94,1.38,1.38,0,0,1,1.18,4.61c1.16-.1,2.31-.16,3.47-.23Z"/></g></g></svg>